%TF.GenerationSoftware,KiCad,Pcbnew,(6.0.1)*%
%TF.CreationDate,2022-08-22T15:29:29+03:00*%
%TF.ProjectId,Input Connector,496e7075-7420-4436-9f6e-6e6563746f72,rev?*%
%TF.SameCoordinates,Original*%
%TF.FileFunction,Copper,L1,Top*%
%TF.FilePolarity,Positive*%
%FSLAX46Y46*%
G04 Gerber Fmt 4.6, Leading zero omitted, Abs format (unit mm)*
G04 Created by KiCad (PCBNEW (6.0.1)) date 2022-08-22 15:29:29*
%MOMM*%
%LPD*%
G01*
G04 APERTURE LIST*
G04 Aperture macros list*
%AMRoundRect*
0 Rectangle with rounded corners*
0 $1 Rounding radius*
0 $2 $3 $4 $5 $6 $7 $8 $9 X,Y pos of 4 corners*
0 Add a 4 corners polygon primitive as box body*
4,1,4,$2,$3,$4,$5,$6,$7,$8,$9,$2,$3,0*
0 Add four circle primitives for the rounded corners*
1,1,$1+$1,$2,$3*
1,1,$1+$1,$4,$5*
1,1,$1+$1,$6,$7*
1,1,$1+$1,$8,$9*
0 Add four rect primitives between the rounded corners*
20,1,$1+$1,$2,$3,$4,$5,0*
20,1,$1+$1,$4,$5,$6,$7,0*
20,1,$1+$1,$6,$7,$8,$9,0*
20,1,$1+$1,$8,$9,$2,$3,0*%
G04 Aperture macros list end*
%TA.AperFunction,ComponentPad*%
%ADD10RoundRect,0.250001X0.499999X0.499999X-0.499999X0.499999X-0.499999X-0.499999X0.499999X-0.499999X0*%
%TD*%
%TA.AperFunction,ComponentPad*%
%ADD11C,1.500000*%
%TD*%
%TA.AperFunction,ComponentPad*%
%ADD12R,2.625000X2.625000*%
%TD*%
%TA.AperFunction,ComponentPad*%
%ADD13C,2.625000*%
%TD*%
%TA.AperFunction,Conductor*%
%ADD14C,0.500000*%
%TD*%
%TA.AperFunction,Conductor*%
%ADD15C,1.000000*%
%TD*%
G04 APERTURE END LIST*
D10*
%TO.P,J3,1,Pin_1*%
%TO.N,GNDD*%
X94996000Y-84836000D03*
D11*
%TO.P,J3,2,Pin_2*%
%TO.N,VDD*%
X91996000Y-84836000D03*
%TO.P,J3,3,Pin_3*%
%TO.N,GNDD*%
X94996000Y-81836000D03*
%TO.P,J3,4,Pin_4*%
%TO.N,VDD*%
X91996000Y-81836000D03*
%TD*%
D10*
%TO.P,J2,1,Pin_1*%
%TO.N,/Z*%
X112196000Y-84719000D03*
D11*
%TO.P,J2,2,Pin_2*%
%TO.N,/A*%
X109196000Y-84719000D03*
%TO.P,J2,3,Pin_3*%
%TO.N,GND*%
X106196000Y-84719000D03*
%TO.P,J2,4,Pin_4*%
%TO.N,/CANH*%
X103196000Y-84719000D03*
%TO.P,J2,5,Pin_5*%
%TO.N,/Y*%
X112196000Y-81719000D03*
%TO.P,J2,6,Pin_6*%
%TO.N,/B*%
X109196000Y-81719000D03*
%TO.P,J2,7,Pin_7*%
%TO.N,GND*%
X106196000Y-81719000D03*
%TO.P,J2,8,Pin_8*%
%TO.N,/CANL*%
X103196000Y-81719000D03*
%TD*%
D12*
%TO.P,J1,1,1*%
%TO.N,VDD*%
X151922000Y-80074000D03*
D13*
%TO.P,J1,2,2*%
%TO.N,unconnected-(J1-Pad2)*%
X147922000Y-80074000D03*
%TO.P,J1,3,3*%
%TO.N,unconnected-(J1-Pad3)*%
X143922000Y-80074000D03*
%TO.P,J1,4,4*%
%TO.N,unconnected-(J1-Pad4)*%
X139922000Y-80074000D03*
%TO.P,J1,5,5*%
%TO.N,unconnected-(J1-Pad5)*%
X135922000Y-80074000D03*
%TO.P,J1,6,6*%
%TO.N,unconnected-(J1-Pad6)*%
X131922000Y-80074000D03*
%TO.P,J1,7,7*%
%TO.N,/CANH*%
X127922000Y-80074000D03*
%TO.P,J1,8,8*%
%TO.N,/CANL*%
X123922000Y-80074000D03*
%TO.P,J1,9,9*%
%TO.N,unconnected-(J1-Pad9)*%
X149922000Y-84074000D03*
%TO.P,J1,10,10*%
%TO.N,unconnected-(J1-Pad10)*%
X145922000Y-84074000D03*
%TO.P,J1,11,11*%
%TO.N,unconnected-(J1-Pad11)*%
X141922000Y-84074000D03*
%TO.P,J1,12,12*%
%TO.N,unconnected-(J1-Pad12)*%
X137922000Y-84074000D03*
%TO.P,J1,13,13*%
%TO.N,unconnected-(J1-Pad13)*%
X133922000Y-84074000D03*
%TO.P,J1,14,14*%
%TO.N,/A*%
X129922000Y-84074000D03*
%TO.P,J1,15,15*%
%TO.N,/B*%
X125922000Y-84074000D03*
%TO.P,J1,16,16*%
%TO.N,GNDD*%
X151922000Y-88074000D03*
%TO.P,J1,17,17*%
%TO.N,unconnected-(J1-Pad17)*%
X147922000Y-88074000D03*
%TO.P,J1,18,18*%
%TO.N,unconnected-(J1-Pad18)*%
X143922000Y-88074000D03*
%TO.P,J1,19,19*%
%TO.N,unconnected-(J1-Pad19)*%
X139922000Y-88074000D03*
%TO.P,J1,20,20*%
%TO.N,unconnected-(J1-Pad20)*%
X135922000Y-88074000D03*
%TO.P,J1,21,21*%
%TO.N,GND*%
X131922000Y-88074000D03*
%TO.P,J1,22,22*%
%TO.N,/Y*%
X127922000Y-88074000D03*
%TO.P,J1,23,23*%
%TO.N,/Z*%
X123922000Y-88074000D03*
%TD*%
D14*
%TO.N,/CANH*%
X101346000Y-81026000D02*
X101346000Y-82869000D01*
X127922000Y-80074000D02*
X125064000Y-77216000D01*
X125064000Y-77216000D02*
X105156000Y-77216000D01*
X101346000Y-82869000D02*
X103196000Y-84719000D01*
X105156000Y-77216000D02*
X101346000Y-81026000D01*
%TO.N,/CANL*%
X106153500Y-78761500D02*
X103196000Y-81719000D01*
X122609500Y-78761500D02*
X106153500Y-78761500D01*
X123922000Y-80074000D02*
X122609500Y-78761500D01*
%TO.N,/A*%
X127684011Y-86311989D02*
X129922000Y-84074000D01*
X109196000Y-84719000D02*
X110788989Y-86311989D01*
X110788989Y-86311989D02*
X127684011Y-86311989D01*
%TO.N,/B*%
X110395511Y-82918511D02*
X109196000Y-81719000D01*
X125922000Y-84074000D02*
X124766511Y-82918511D01*
X124766511Y-82918511D02*
X110395511Y-82918511D01*
D15*
%TO.N,GND*%
X131064000Y-91440000D02*
X131922000Y-90582000D01*
X131922000Y-90582000D02*
X131922000Y-88074000D01*
X121920000Y-91440000D02*
X131064000Y-91440000D01*
X109615000Y-88138000D02*
X118618000Y-88138000D01*
X118618000Y-88138000D02*
X121920000Y-91440000D01*
X106196000Y-81719000D02*
X106196000Y-84719000D01*
X106196000Y-84719000D02*
X109615000Y-88138000D01*
%TD*%
%TA.AperFunction,Conductor*%
%TO.N,GNDD*%
G36*
X168106121Y-68330002D02*
G01*
X168152614Y-68383658D01*
X168164000Y-68436000D01*
X168164000Y-99712000D01*
X168143998Y-99780121D01*
X168090342Y-99826614D01*
X168038000Y-99838000D01*
X88502000Y-99838000D01*
X88433879Y-99817998D01*
X88387386Y-99764342D01*
X88376000Y-99712000D01*
X88376000Y-82446972D01*
X88396002Y-82378851D01*
X88449658Y-82332358D01*
X88519932Y-82322254D01*
X88535672Y-82325555D01*
X88663668Y-82361051D01*
X88713871Y-82374974D01*
X88719008Y-82375523D01*
X88911957Y-82396144D01*
X88911965Y-82396144D01*
X88915292Y-82396500D01*
X89058554Y-82396500D01*
X89061127Y-82396288D01*
X89061138Y-82396288D01*
X89236760Y-82381849D01*
X89236766Y-82381848D01*
X89241911Y-82381425D01*
X89481217Y-82321316D01*
X89707493Y-82222928D01*
X89914661Y-82088905D01*
X89918700Y-82085230D01*
X90044053Y-81971168D01*
X90107899Y-81940116D01*
X90178397Y-81948512D01*
X90233165Y-81993689D01*
X90253592Y-82048151D01*
X90253677Y-82049930D01*
X90254589Y-82054513D01*
X90254589Y-82054516D01*
X90281633Y-82190476D01*
X90304435Y-82305112D01*
X90392355Y-82549989D01*
X90515504Y-82779180D01*
X90518299Y-82782923D01*
X90518301Y-82782926D01*
X90668385Y-82983913D01*
X90668390Y-82983919D01*
X90671177Y-82987651D01*
X90674486Y-82990931D01*
X90674491Y-82990937D01*
X90852637Y-83167535D01*
X90855954Y-83170823D01*
X90859716Y-83173581D01*
X90859719Y-83173584D01*
X90939413Y-83232018D01*
X90982521Y-83288429D01*
X90988288Y-83359191D01*
X90954882Y-83421838D01*
X90933993Y-83439002D01*
X90927375Y-83443341D01*
X90872746Y-83492099D01*
X90777062Y-83577501D01*
X90733265Y-83616591D01*
X90566895Y-83816629D01*
X90431920Y-84039061D01*
X90430111Y-84043375D01*
X90430110Y-84043377D01*
X90377428Y-84169011D01*
X90331305Y-84279001D01*
X90267261Y-84531177D01*
X90241194Y-84790049D01*
X90253677Y-85049930D01*
X90304435Y-85305112D01*
X90392355Y-85549989D01*
X90515504Y-85779180D01*
X90518299Y-85782923D01*
X90518301Y-85782926D01*
X90668385Y-85983913D01*
X90668390Y-85983919D01*
X90671177Y-85987651D01*
X90674486Y-85990931D01*
X90674491Y-85990937D01*
X90826495Y-86141620D01*
X90855954Y-86170823D01*
X90859716Y-86173581D01*
X90859719Y-86173584D01*
X90972332Y-86256155D01*
X91065775Y-86324670D01*
X91069910Y-86326846D01*
X91069914Y-86326848D01*
X91195774Y-86393066D01*
X91296033Y-86445815D01*
X91374326Y-86473156D01*
X91532922Y-86528540D01*
X91541667Y-86531594D01*
X91546260Y-86532466D01*
X91792693Y-86579253D01*
X91792696Y-86579253D01*
X91797282Y-86580124D01*
X91927273Y-86585232D01*
X92052595Y-86590156D01*
X92052601Y-86590156D01*
X92057263Y-86590339D01*
X92158489Y-86579253D01*
X92311245Y-86562524D01*
X92311250Y-86562523D01*
X92315898Y-86562014D01*
X92320422Y-86560823D01*
X92562982Y-86496962D01*
X92562984Y-86496961D01*
X92567505Y-86495771D01*
X92645520Y-86462253D01*
X92802263Y-86394911D01*
X92802265Y-86394910D01*
X92806557Y-86393066D01*
X93027803Y-86256155D01*
X93074238Y-86216845D01*
X93222809Y-86091071D01*
X93222811Y-86091069D01*
X93226382Y-86088046D01*
X93397931Y-85892431D01*
X93411941Y-85870651D01*
X93515302Y-85709958D01*
X93538683Y-85673608D01*
X93645544Y-85436385D01*
X93670896Y-85346494D01*
X93714898Y-85190476D01*
X93714899Y-85190473D01*
X93716168Y-85185972D01*
X93732891Y-85054518D01*
X93748604Y-84931001D01*
X93748604Y-84930997D01*
X93749002Y-84927871D01*
X93751408Y-84836000D01*
X93732126Y-84576534D01*
X93674705Y-84322768D01*
X93660706Y-84286770D01*
X93582098Y-84084630D01*
X93582097Y-84084628D01*
X93580405Y-84080277D01*
X93576818Y-84074000D01*
X93453618Y-83858446D01*
X93451299Y-83854388D01*
X93290223Y-83650064D01*
X93100714Y-83471792D01*
X93055560Y-83440467D01*
X93010992Y-83385206D01*
X93003375Y-83314620D01*
X93035129Y-83251120D01*
X93045965Y-83240780D01*
X93226382Y-83088046D01*
X93397931Y-82892431D01*
X93407043Y-82878266D01*
X93536155Y-82677538D01*
X93538683Y-82673608D01*
X93645544Y-82436385D01*
X93658072Y-82391963D01*
X93714898Y-82190476D01*
X93714899Y-82190473D01*
X93716168Y-82185972D01*
X93732891Y-82054516D01*
X93748604Y-81931001D01*
X93748604Y-81930997D01*
X93749002Y-81927871D01*
X93749955Y-81891501D01*
X93751325Y-81839160D01*
X93751408Y-81836000D01*
X93741484Y-81702457D01*
X93732472Y-81581186D01*
X93732471Y-81581182D01*
X93732126Y-81576534D01*
X93674705Y-81322768D01*
X93646347Y-81249845D01*
X93582098Y-81084630D01*
X93582097Y-81084628D01*
X93580405Y-81080277D01*
X93535111Y-81001028D01*
X96494025Y-81001028D01*
X96531347Y-81244930D01*
X96608003Y-81479460D01*
X96610393Y-81484051D01*
X96717496Y-81689793D01*
X96721935Y-81698321D01*
X96725038Y-81702454D01*
X96725040Y-81702457D01*
X96866978Y-81891501D01*
X96870083Y-81895636D01*
X97048468Y-82066104D01*
X97052740Y-82069018D01*
X97052741Y-82069019D01*
X97100559Y-82101638D01*
X97252300Y-82205149D01*
X97363125Y-82256592D01*
X97471409Y-82306856D01*
X97471413Y-82306857D01*
X97476104Y-82309035D01*
X97713871Y-82374974D01*
X97719008Y-82375523D01*
X97911957Y-82396144D01*
X97911965Y-82396144D01*
X97915292Y-82396500D01*
X98058554Y-82396500D01*
X98061127Y-82396288D01*
X98061138Y-82396288D01*
X98236760Y-82381849D01*
X98236766Y-82381848D01*
X98241911Y-82381425D01*
X98481217Y-82321316D01*
X98707493Y-82222928D01*
X98914661Y-82088905D01*
X98936516Y-82069019D01*
X99073687Y-81944203D01*
X99137533Y-81913151D01*
X99208031Y-81921547D01*
X99240265Y-81942824D01*
X99240709Y-81942276D01*
X99244731Y-81945533D01*
X99248468Y-81949104D01*
X99252740Y-81952018D01*
X99252741Y-81952019D01*
X99313827Y-81993689D01*
X99452300Y-82088149D01*
X99481360Y-82101638D01*
X99671409Y-82189856D01*
X99671413Y-82189857D01*
X99676104Y-82192035D01*
X99836120Y-82236412D01*
X99908887Y-82256592D01*
X99908889Y-82256592D01*
X99913871Y-82257974D01*
X99982889Y-82265350D01*
X100048499Y-82292478D01*
X100089027Y-82350770D01*
X100095500Y-82390637D01*
X100095500Y-82778138D01*
X100094422Y-82794585D01*
X100091547Y-82816422D01*
X100091812Y-82822034D01*
X100095360Y-82897271D01*
X100095500Y-82903207D01*
X100095500Y-82925630D01*
X100095750Y-82928428D01*
X100097804Y-82951452D01*
X100098163Y-82956713D01*
X100102063Y-83039398D01*
X100103314Y-83044861D01*
X100103315Y-83044867D01*
X100106028Y-83056711D01*
X100108710Y-83073645D01*
X100110289Y-83091339D01*
X100111771Y-83096755D01*
X100111771Y-83096757D01*
X100132131Y-83171181D01*
X100133417Y-83176299D01*
X100151897Y-83256987D01*
X100154095Y-83262141D01*
X100154099Y-83262152D01*
X100158866Y-83273326D01*
X100164505Y-83289516D01*
X100169192Y-83306651D01*
X100204835Y-83381377D01*
X100206993Y-83386157D01*
X100239476Y-83462313D01*
X100249236Y-83477171D01*
X100257642Y-83492091D01*
X100265292Y-83508129D01*
X100268563Y-83512682D01*
X100268566Y-83512686D01*
X100313589Y-83575341D01*
X100316579Y-83579690D01*
X100343183Y-83620190D01*
X100362031Y-83648884D01*
X100380398Y-83669499D01*
X100388640Y-83679786D01*
X100395552Y-83689405D01*
X100471791Y-83763286D01*
X100473201Y-83764675D01*
X101409778Y-84701252D01*
X101443804Y-84763564D01*
X101446538Y-84784299D01*
X101453677Y-84932930D01*
X101504435Y-85188112D01*
X101592355Y-85432989D01*
X101715504Y-85662180D01*
X101718299Y-85665923D01*
X101718301Y-85665926D01*
X101868385Y-85866913D01*
X101868390Y-85866919D01*
X101871177Y-85870651D01*
X101874486Y-85873931D01*
X101874491Y-85873937D01*
X101975503Y-85974071D01*
X102055954Y-86053823D01*
X102059716Y-86056581D01*
X102059719Y-86056584D01*
X102262004Y-86204905D01*
X102265775Y-86207670D01*
X102269910Y-86209846D01*
X102269914Y-86209848D01*
X102395774Y-86276066D01*
X102496033Y-86328815D01*
X102617778Y-86371330D01*
X102737249Y-86413051D01*
X102741667Y-86414594D01*
X102746260Y-86415466D01*
X102992693Y-86462253D01*
X102992696Y-86462253D01*
X102997282Y-86463124D01*
X103127272Y-86468231D01*
X103252595Y-86473156D01*
X103252601Y-86473156D01*
X103257263Y-86473339D01*
X103358489Y-86462253D01*
X103511245Y-86445524D01*
X103511250Y-86445523D01*
X103515898Y-86445014D01*
X103606608Y-86421132D01*
X103762982Y-86379962D01*
X103762984Y-86379961D01*
X103767505Y-86378771D01*
X103782327Y-86372403D01*
X104002263Y-86277911D01*
X104002265Y-86277910D01*
X104006557Y-86276066D01*
X104176628Y-86170823D01*
X104223820Y-86141620D01*
X104223822Y-86141618D01*
X104227803Y-86139155D01*
X104292331Y-86084528D01*
X104422809Y-85974071D01*
X104422811Y-85974069D01*
X104426382Y-85971046D01*
X104597931Y-85775431D01*
X104598805Y-85774072D01*
X104655128Y-85732187D01*
X104725960Y-85727346D01*
X104788164Y-85761568D01*
X104799745Y-85774992D01*
X104868385Y-85866913D01*
X104868390Y-85866919D01*
X104871177Y-85870651D01*
X104874486Y-85873931D01*
X104874491Y-85873937D01*
X104975503Y-85974071D01*
X105055954Y-86053823D01*
X105059716Y-86056581D01*
X105059719Y-86056584D01*
X105262004Y-86204905D01*
X105265775Y-86207670D01*
X105269910Y-86209846D01*
X105269914Y-86209848D01*
X105395774Y-86276066D01*
X105496033Y-86328815D01*
X105617778Y-86371330D01*
X105737248Y-86413051D01*
X105737250Y-86413052D01*
X105741667Y-86414594D01*
X105746261Y-86415466D01*
X105746682Y-86415579D01*
X105803162Y-86448190D01*
X108472147Y-89117174D01*
X108483812Y-89130616D01*
X108489083Y-89137636D01*
X108492825Y-89141212D01*
X108492826Y-89141213D01*
X108567516Y-89212588D01*
X108569560Y-89214587D01*
X108598219Y-89243246D01*
X108600177Y-89244906D01*
X108600184Y-89244913D01*
X108607619Y-89251218D01*
X108613173Y-89256219D01*
X108667468Y-89308104D01*
X108671740Y-89311018D01*
X108698965Y-89329590D01*
X108709454Y-89337580D01*
X108738531Y-89362239D01*
X108742964Y-89364892D01*
X108802973Y-89400807D01*
X108809270Y-89404835D01*
X108871300Y-89447149D01*
X108875987Y-89449325D01*
X108875993Y-89449328D01*
X108905887Y-89463204D01*
X108917532Y-89469370D01*
X108950250Y-89488951D01*
X108955057Y-89490844D01*
X108955060Y-89490846D01*
X109020122Y-89516474D01*
X109026994Y-89519419D01*
X109095104Y-89551035D01*
X109100089Y-89552417D01*
X109100093Y-89552419D01*
X109131843Y-89561224D01*
X109144338Y-89565404D01*
X109179822Y-89579381D01*
X109184883Y-89580466D01*
X109253229Y-89595119D01*
X109260487Y-89596901D01*
X109321489Y-89613818D01*
X109332871Y-89616974D01*
X109370780Y-89621025D01*
X109383802Y-89623112D01*
X109416016Y-89630018D01*
X109416024Y-89630019D01*
X109421080Y-89631103D01*
X109426239Y-89631346D01*
X109426244Y-89631347D01*
X109496085Y-89634641D01*
X109503534Y-89635214D01*
X109530950Y-89638143D01*
X109530952Y-89638143D01*
X109534292Y-89638500D01*
X109574968Y-89638500D01*
X109580902Y-89638640D01*
X109667546Y-89642726D01*
X109696190Y-89639361D01*
X109710891Y-89638500D01*
X111325612Y-89638500D01*
X111393733Y-89658502D01*
X111440226Y-89712158D01*
X111450330Y-89782432D01*
X111420836Y-89847012D01*
X111414005Y-89854292D01*
X111217570Y-90047666D01*
X111214869Y-90051206D01*
X111214863Y-90051212D01*
X111178237Y-90099204D01*
X111045696Y-90272874D01*
X111043521Y-90276758D01*
X110918047Y-90500810D01*
X110907270Y-90520053D01*
X110905662Y-90524211D01*
X110905659Y-90524216D01*
X110808282Y-90775920D01*
X110805052Y-90784270D01*
X110741082Y-91060253D01*
X110716637Y-91342497D01*
X110716881Y-91346932D01*
X110716881Y-91346936D01*
X110730742Y-91598782D01*
X110732205Y-91625370D01*
X110787474Y-91903226D01*
X110788950Y-91907429D01*
X110810181Y-91967885D01*
X110881342Y-92170524D01*
X110883395Y-92174477D01*
X110883398Y-92174483D01*
X110957360Y-92316865D01*
X111011936Y-92421928D01*
X111014519Y-92425543D01*
X111014523Y-92425549D01*
X111041137Y-92462791D01*
X111176651Y-92652424D01*
X111179729Y-92655651D01*
X111179731Y-92655653D01*
X111368024Y-92853035D01*
X111372199Y-92857412D01*
X111594680Y-93032801D01*
X111704927Y-93096837D01*
X111835807Y-93172859D01*
X111835813Y-93172862D01*
X111839654Y-93175093D01*
X112102232Y-93281448D01*
X112106545Y-93282519D01*
X112106550Y-93282521D01*
X112372856Y-93348672D01*
X112372861Y-93348673D01*
X112377177Y-93349745D01*
X112381605Y-93350199D01*
X112381607Y-93350199D01*
X112457307Y-93357955D01*
X112618790Y-93374500D01*
X112794170Y-93374500D01*
X113004593Y-93359601D01*
X113008948Y-93358663D01*
X113008951Y-93358663D01*
X113277200Y-93300911D01*
X113277202Y-93300911D01*
X113281547Y-93299975D01*
X113547337Y-93201920D01*
X113796660Y-93067393D01*
X114024540Y-92899078D01*
X114031179Y-92892543D01*
X114137359Y-92788017D01*
X114226430Y-92700334D01*
X114229131Y-92696794D01*
X114229137Y-92696788D01*
X114395602Y-92478667D01*
X114395605Y-92478663D01*
X114398304Y-92475126D01*
X114536730Y-92227947D01*
X114558946Y-92170524D01*
X114637341Y-91967885D01*
X114637343Y-91967879D01*
X114638948Y-91963730D01*
X114702918Y-91687747D01*
X114727363Y-91405503D01*
X114727119Y-91401064D01*
X114712040Y-91127073D01*
X114712039Y-91127066D01*
X114711795Y-91122630D01*
X114674769Y-90936488D01*
X114657396Y-90849146D01*
X114657395Y-90849141D01*
X114656526Y-90844774D01*
X114634123Y-90780980D01*
X114564136Y-90581684D01*
X114564135Y-90581681D01*
X114562658Y-90577476D01*
X114560605Y-90573523D01*
X114560602Y-90573517D01*
X114455991Y-90372133D01*
X114432064Y-90326072D01*
X114429481Y-90322457D01*
X114429477Y-90322451D01*
X114349858Y-90211037D01*
X114267349Y-90095576D01*
X114225028Y-90051212D01*
X114074876Y-89893811D01*
X114074873Y-89893808D01*
X114071801Y-89890588D01*
X114037376Y-89863450D01*
X113996263Y-89805570D01*
X113992969Y-89734650D01*
X114028540Y-89673207D01*
X114091683Y-89640749D01*
X114115382Y-89638500D01*
X117944282Y-89638500D01*
X118012403Y-89658502D01*
X118033377Y-89675405D01*
X120777147Y-92419174D01*
X120788812Y-92432616D01*
X120789254Y-92433204D01*
X120794083Y-92439636D01*
X120797825Y-92443212D01*
X120797826Y-92443213D01*
X120872516Y-92514588D01*
X120874560Y-92516587D01*
X120903219Y-92545246D01*
X120905177Y-92546906D01*
X120905184Y-92546913D01*
X120912619Y-92553218D01*
X120918173Y-92558219D01*
X120972468Y-92610104D01*
X120976740Y-92613018D01*
X121003965Y-92631590D01*
X121014454Y-92639580D01*
X121043531Y-92664239D01*
X121047964Y-92666892D01*
X121107976Y-92702809D01*
X121114273Y-92706837D01*
X121176300Y-92749149D01*
X121208557Y-92764122D01*
X121210875Y-92765198D01*
X121222531Y-92771369D01*
X121255249Y-92790951D01*
X121295457Y-92806789D01*
X121325126Y-92818476D01*
X121331997Y-92821421D01*
X121356070Y-92832595D01*
X121400104Y-92853035D01*
X121405077Y-92854414D01*
X121405085Y-92854417D01*
X121436846Y-92863224D01*
X121449335Y-92867402D01*
X121484822Y-92881381D01*
X121524124Y-92889807D01*
X121558229Y-92897119D01*
X121565487Y-92898901D01*
X121626489Y-92915818D01*
X121637871Y-92918974D01*
X121675780Y-92923025D01*
X121688802Y-92925112D01*
X121721016Y-92932018D01*
X121721024Y-92932019D01*
X121726080Y-92933103D01*
X121731239Y-92933346D01*
X121731244Y-92933347D01*
X121801085Y-92936641D01*
X121808534Y-92937214D01*
X121835950Y-92940143D01*
X121835952Y-92940143D01*
X121839292Y-92940500D01*
X121879968Y-92940500D01*
X121885902Y-92940640D01*
X121972546Y-92944726D01*
X122001190Y-92941361D01*
X122015891Y-92940500D01*
X130948268Y-92940500D01*
X130966021Y-92941757D01*
X130969588Y-92942265D01*
X130969593Y-92942265D01*
X130974706Y-92942993D01*
X130979868Y-92942876D01*
X130979871Y-92942876D01*
X131083150Y-92940532D01*
X131086009Y-92940500D01*
X131126554Y-92940500D01*
X131129109Y-92940290D01*
X131129133Y-92940289D01*
X131138839Y-92939491D01*
X131146298Y-92939099D01*
X131221382Y-92937395D01*
X131226454Y-92936437D01*
X131226460Y-92936436D01*
X131258847Y-92930316D01*
X131271916Y-92928549D01*
X131304759Y-92925849D01*
X131304764Y-92925848D01*
X131309911Y-92925425D01*
X131343273Y-92917045D01*
X131382746Y-92907131D01*
X131390045Y-92905526D01*
X131458753Y-92892543D01*
X131458754Y-92892543D01*
X131463833Y-92891583D01*
X131468684Y-92889808D01*
X131468687Y-92889807D01*
X131488749Y-92882465D01*
X131499637Y-92878481D01*
X131512236Y-92874605D01*
X131523657Y-92871736D01*
X131544206Y-92866575D01*
X131544210Y-92866574D01*
X131549217Y-92865316D01*
X131584267Y-92850076D01*
X131618087Y-92835371D01*
X131625027Y-92832595D01*
X131695545Y-92806789D01*
X131725409Y-92789892D01*
X131728724Y-92788017D01*
X131740528Y-92782131D01*
X131740998Y-92781927D01*
X131775493Y-92766928D01*
X131779828Y-92764124D01*
X131779831Y-92764122D01*
X131807487Y-92746230D01*
X131838545Y-92726138D01*
X131844927Y-92722273D01*
X131905795Y-92687836D01*
X131905803Y-92687831D01*
X131910297Y-92685288D01*
X131914319Y-92682043D01*
X131914326Y-92682038D01*
X131939977Y-92661341D01*
X131950651Y-92653614D01*
X131982661Y-92632905D01*
X132038203Y-92582365D01*
X132043871Y-92577508D01*
X132065326Y-92560197D01*
X132065334Y-92560190D01*
X132067945Y-92558083D01*
X132096703Y-92529325D01*
X132100999Y-92525226D01*
X132112690Y-92514588D01*
X132165158Y-92466846D01*
X132168357Y-92462795D01*
X132168361Y-92462791D01*
X132183037Y-92444207D01*
X132192824Y-92433204D01*
X132901178Y-91724850D01*
X132914620Y-91713185D01*
X132917493Y-91711028D01*
X132917496Y-91711026D01*
X132921636Y-91707917D01*
X132996567Y-91629506D01*
X132998566Y-91627462D01*
X133027246Y-91598782D01*
X133035227Y-91589372D01*
X133040224Y-91583822D01*
X133088532Y-91533270D01*
X133092104Y-91529532D01*
X133113590Y-91498035D01*
X133121577Y-91487550D01*
X133142897Y-91462410D01*
X133142898Y-91462409D01*
X133146239Y-91458469D01*
X133184809Y-91394024D01*
X133188837Y-91387727D01*
X133219691Y-91342497D01*
X161116637Y-91342497D01*
X161116881Y-91346932D01*
X161116881Y-91346936D01*
X161130742Y-91598782D01*
X161132205Y-91625370D01*
X161187474Y-91903226D01*
X161188950Y-91907429D01*
X161210181Y-91967885D01*
X161281342Y-92170524D01*
X161283395Y-92174477D01*
X161283398Y-92174483D01*
X161357360Y-92316865D01*
X161411936Y-92421928D01*
X161414519Y-92425543D01*
X161414523Y-92425549D01*
X161441137Y-92462791D01*
X161576651Y-92652424D01*
X161579729Y-92655651D01*
X161579731Y-92655653D01*
X161768024Y-92853035D01*
X161772199Y-92857412D01*
X161994680Y-93032801D01*
X162104927Y-93096837D01*
X162235807Y-93172859D01*
X162235813Y-93172862D01*
X162239654Y-93175093D01*
X162502232Y-93281448D01*
X162506545Y-93282519D01*
X162506550Y-93282521D01*
X162772856Y-93348672D01*
X162772861Y-93348673D01*
X162777177Y-93349745D01*
X162781605Y-93350199D01*
X162781607Y-93350199D01*
X162857307Y-93357955D01*
X163018790Y-93374500D01*
X163194170Y-93374500D01*
X163404593Y-93359601D01*
X163408948Y-93358663D01*
X163408951Y-93358663D01*
X163677200Y-93300911D01*
X163677202Y-93300911D01*
X163681547Y-93299975D01*
X163947337Y-93201920D01*
X164196660Y-93067393D01*
X164424540Y-92899078D01*
X164431179Y-92892543D01*
X164537359Y-92788017D01*
X164626430Y-92700334D01*
X164629131Y-92696794D01*
X164629137Y-92696788D01*
X164795602Y-92478667D01*
X164795605Y-92478663D01*
X164798304Y-92475126D01*
X164936730Y-92227947D01*
X164958946Y-92170524D01*
X165037341Y-91967885D01*
X165037343Y-91967879D01*
X165038948Y-91963730D01*
X165102918Y-91687747D01*
X165127363Y-91405503D01*
X165127119Y-91401064D01*
X165112040Y-91127073D01*
X165112039Y-91127066D01*
X165111795Y-91122630D01*
X165074769Y-90936488D01*
X165057396Y-90849146D01*
X165057395Y-90849141D01*
X165056526Y-90844774D01*
X165034123Y-90780980D01*
X164964136Y-90581684D01*
X164964135Y-90581681D01*
X164962658Y-90577476D01*
X164960605Y-90573523D01*
X164960602Y-90573517D01*
X164855991Y-90372133D01*
X164832064Y-90326072D01*
X164829481Y-90322457D01*
X164829477Y-90322451D01*
X164749858Y-90211037D01*
X164667349Y-90095576D01*
X164625028Y-90051212D01*
X164474876Y-89893811D01*
X164474873Y-89893808D01*
X164471801Y-89890588D01*
X164249320Y-89715199D01*
X164102670Y-89630018D01*
X164008193Y-89575141D01*
X164008187Y-89575138D01*
X164004346Y-89572907D01*
X163950347Y-89551035D01*
X163745894Y-89468223D01*
X163745891Y-89468222D01*
X163741768Y-89466552D01*
X163737455Y-89465481D01*
X163737450Y-89465479D01*
X163471144Y-89399328D01*
X163471139Y-89399327D01*
X163466823Y-89398255D01*
X163462395Y-89397801D01*
X163462393Y-89397801D01*
X163367552Y-89388084D01*
X163225210Y-89373500D01*
X163049830Y-89373500D01*
X162839407Y-89388399D01*
X162835052Y-89389337D01*
X162835049Y-89389337D01*
X162566800Y-89447089D01*
X162566798Y-89447089D01*
X162562453Y-89448025D01*
X162296663Y-89546080D01*
X162292745Y-89548194D01*
X162205778Y-89595119D01*
X162047340Y-89680607D01*
X161819460Y-89848922D01*
X161816281Y-89852051D01*
X161816278Y-89852054D01*
X161757165Y-89910246D01*
X161617570Y-90047666D01*
X161614869Y-90051206D01*
X161614863Y-90051212D01*
X161578237Y-90099204D01*
X161445696Y-90272874D01*
X161443521Y-90276758D01*
X161318047Y-90500810D01*
X161307270Y-90520053D01*
X161305662Y-90524211D01*
X161305659Y-90524216D01*
X161208282Y-90775920D01*
X161205052Y-90784270D01*
X161141082Y-91060253D01*
X161116637Y-91342497D01*
X133219691Y-91342497D01*
X133228230Y-91329979D01*
X133231149Y-91325700D01*
X133247199Y-91291124D01*
X133253370Y-91279468D01*
X133272951Y-91246751D01*
X133300476Y-91176874D01*
X133303421Y-91170003D01*
X133332861Y-91106580D01*
X133332862Y-91106578D01*
X133335035Y-91101896D01*
X133336414Y-91096923D01*
X133336417Y-91096915D01*
X133345224Y-91065154D01*
X133349402Y-91052665D01*
X133363381Y-91017178D01*
X133379123Y-90943748D01*
X133380907Y-90936488D01*
X133399592Y-90869113D01*
X133399592Y-90869111D01*
X133400974Y-90864129D01*
X133401523Y-90858988D01*
X133401525Y-90858980D01*
X133405028Y-90826208D01*
X133407113Y-90813189D01*
X133414018Y-90780980D01*
X133414019Y-90780971D01*
X133415102Y-90775920D01*
X133418639Y-90700918D01*
X133419213Y-90693462D01*
X133422143Y-90666045D01*
X133422500Y-90662708D01*
X133422500Y-90622027D01*
X133422640Y-90616091D01*
X133426482Y-90534619D01*
X133426726Y-90529454D01*
X133423361Y-90500810D01*
X133422500Y-90486109D01*
X133422500Y-89891640D01*
X133442502Y-89823519D01*
X133465422Y-89796908D01*
X133557958Y-89715756D01*
X133561047Y-89713047D01*
X133625668Y-89639361D01*
X133758246Y-89488186D01*
X133758250Y-89488180D01*
X133760964Y-89485086D01*
X133817235Y-89400870D01*
X133871711Y-89355343D01*
X133942155Y-89346494D01*
X134006199Y-89377135D01*
X134026764Y-89400869D01*
X134083036Y-89485086D01*
X134085750Y-89488180D01*
X134085754Y-89488186D01*
X134218332Y-89639361D01*
X134282953Y-89713047D01*
X134286042Y-89715756D01*
X134507814Y-89910246D01*
X134507820Y-89910250D01*
X134510914Y-89912964D01*
X134514340Y-89915253D01*
X134514345Y-89915257D01*
X134704755Y-90042485D01*
X134763018Y-90081415D01*
X134766717Y-90083239D01*
X134766722Y-90083242D01*
X134906366Y-90152106D01*
X135034954Y-90215519D01*
X135038859Y-90216844D01*
X135038860Y-90216845D01*
X135318154Y-90311652D01*
X135318158Y-90311653D01*
X135322067Y-90312980D01*
X135326111Y-90313784D01*
X135326117Y-90313786D01*
X135615406Y-90371330D01*
X135615412Y-90371331D01*
X135619445Y-90372133D01*
X135623550Y-90372402D01*
X135623557Y-90372403D01*
X135917880Y-90391693D01*
X135922000Y-90391963D01*
X135926120Y-90391693D01*
X136220443Y-90372403D01*
X136220450Y-90372402D01*
X136224555Y-90372133D01*
X136228588Y-90371331D01*
X136228594Y-90371330D01*
X136517883Y-90313786D01*
X136517889Y-90313784D01*
X136521933Y-90312980D01*
X136525842Y-90311653D01*
X136525846Y-90311652D01*
X136805140Y-90216845D01*
X136805141Y-90216844D01*
X136809046Y-90215519D01*
X136937634Y-90152106D01*
X137077278Y-90083242D01*
X137077283Y-90083239D01*
X137080982Y-90081415D01*
X137139245Y-90042485D01*
X137329655Y-89915257D01*
X137329660Y-89915253D01*
X137333086Y-89912964D01*
X137336180Y-89910250D01*
X137336186Y-89910246D01*
X137557958Y-89715756D01*
X137561047Y-89713047D01*
X137625668Y-89639361D01*
X137758246Y-89488186D01*
X137758250Y-89488180D01*
X137760964Y-89485086D01*
X137817235Y-89400870D01*
X137871711Y-89355343D01*
X137942155Y-89346494D01*
X138006199Y-89377135D01*
X138026764Y-89400869D01*
X138083036Y-89485086D01*
X138085750Y-89488180D01*
X138085754Y-89488186D01*
X138218332Y-89639361D01*
X138282953Y-89713047D01*
X138286042Y-89715756D01*
X138507814Y-89910246D01*
X138507820Y-89910250D01*
X138510914Y-89912964D01*
X138514340Y-89915253D01*
X138514345Y-89915257D01*
X138704755Y-90042485D01*
X138763018Y-90081415D01*
X138766717Y-90083239D01*
X138766722Y-90083242D01*
X138906366Y-90152106D01*
X139034954Y-90215519D01*
X139038859Y-90216844D01*
X139038860Y-90216845D01*
X139318154Y-90311652D01*
X139318158Y-90311653D01*
X139322067Y-90312980D01*
X139326111Y-90313784D01*
X139326117Y-90313786D01*
X139615406Y-90371330D01*
X139615412Y-90371331D01*
X139619445Y-90372133D01*
X139623550Y-90372402D01*
X139623557Y-90372403D01*
X139917880Y-90391693D01*
X139922000Y-90391963D01*
X139926120Y-90391693D01*
X140220443Y-90372403D01*
X140220450Y-90372402D01*
X140224555Y-90372133D01*
X140228588Y-90371331D01*
X140228594Y-90371330D01*
X140517883Y-90313786D01*
X140517889Y-90313784D01*
X140521933Y-90312980D01*
X140525842Y-90311653D01*
X140525846Y-90311652D01*
X140805140Y-90216845D01*
X140805141Y-90216844D01*
X140809046Y-90215519D01*
X140937634Y-90152106D01*
X141077278Y-90083242D01*
X141077283Y-90083239D01*
X141080982Y-90081415D01*
X141139245Y-90042485D01*
X141329655Y-89915257D01*
X141329660Y-89915253D01*
X141333086Y-89912964D01*
X141336180Y-89910250D01*
X141336186Y-89910246D01*
X141557958Y-89715756D01*
X141561047Y-89713047D01*
X141625668Y-89639361D01*
X141758246Y-89488186D01*
X141758250Y-89488180D01*
X141760964Y-89485086D01*
X141817235Y-89400870D01*
X141871711Y-89355343D01*
X141942155Y-89346494D01*
X142006199Y-89377135D01*
X142026764Y-89400869D01*
X142083036Y-89485086D01*
X142085750Y-89488180D01*
X142085754Y-89488186D01*
X142218332Y-89639361D01*
X142282953Y-89713047D01*
X142286042Y-89715756D01*
X142507814Y-89910246D01*
X142507820Y-89910250D01*
X142510914Y-89912964D01*
X142514340Y-89915253D01*
X142514345Y-89915257D01*
X142704755Y-90042485D01*
X142763018Y-90081415D01*
X142766717Y-90083239D01*
X142766722Y-90083242D01*
X142906366Y-90152106D01*
X143034954Y-90215519D01*
X143038859Y-90216844D01*
X143038860Y-90216845D01*
X143318154Y-90311652D01*
X143318158Y-90311653D01*
X143322067Y-90312980D01*
X143326111Y-90313784D01*
X143326117Y-90313786D01*
X143615406Y-90371330D01*
X143615412Y-90371331D01*
X143619445Y-90372133D01*
X143623550Y-90372402D01*
X143623557Y-90372403D01*
X143917880Y-90391693D01*
X143922000Y-90391963D01*
X143926120Y-90391693D01*
X144220443Y-90372403D01*
X144220450Y-90372402D01*
X144224555Y-90372133D01*
X144228588Y-90371331D01*
X144228594Y-90371330D01*
X144517883Y-90313786D01*
X144517889Y-90313784D01*
X144521933Y-90312980D01*
X144525842Y-90311653D01*
X144525846Y-90311652D01*
X144805140Y-90216845D01*
X144805141Y-90216844D01*
X144809046Y-90215519D01*
X144937634Y-90152106D01*
X145077278Y-90083242D01*
X145077283Y-90083239D01*
X145080982Y-90081415D01*
X145139245Y-90042485D01*
X145329655Y-89915257D01*
X145329660Y-89915253D01*
X145333086Y-89912964D01*
X145336180Y-89910250D01*
X145336186Y-89910246D01*
X145557958Y-89715756D01*
X145561047Y-89713047D01*
X145625668Y-89639361D01*
X145758246Y-89488186D01*
X145758250Y-89488180D01*
X145760964Y-89485086D01*
X145817235Y-89400870D01*
X145871711Y-89355343D01*
X145942155Y-89346494D01*
X146006199Y-89377135D01*
X146026764Y-89400869D01*
X146083036Y-89485086D01*
X146085750Y-89488180D01*
X146085754Y-89488186D01*
X146218332Y-89639361D01*
X146282953Y-89713047D01*
X146286042Y-89715756D01*
X146507814Y-89910246D01*
X146507820Y-89910250D01*
X146510914Y-89912964D01*
X146514340Y-89915253D01*
X146514345Y-89915257D01*
X146704755Y-90042485D01*
X146763018Y-90081415D01*
X146766717Y-90083239D01*
X146766722Y-90083242D01*
X146906366Y-90152106D01*
X147034954Y-90215519D01*
X147038859Y-90216844D01*
X147038860Y-90216845D01*
X147318154Y-90311652D01*
X147318158Y-90311653D01*
X147322067Y-90312980D01*
X147326111Y-90313784D01*
X147326117Y-90313786D01*
X147615406Y-90371330D01*
X147615412Y-90371331D01*
X147619445Y-90372133D01*
X147623550Y-90372402D01*
X147623557Y-90372403D01*
X147917880Y-90391693D01*
X147922000Y-90391963D01*
X147926120Y-90391693D01*
X148220443Y-90372403D01*
X148220450Y-90372402D01*
X148224555Y-90372133D01*
X148228588Y-90371331D01*
X148228594Y-90371330D01*
X148517883Y-90313786D01*
X148517889Y-90313784D01*
X148521933Y-90312980D01*
X148525842Y-90311653D01*
X148525846Y-90311652D01*
X148805140Y-90216845D01*
X148805141Y-90216844D01*
X148809046Y-90215519D01*
X148937634Y-90152106D01*
X149077278Y-90083242D01*
X149077283Y-90083239D01*
X149080982Y-90081415D01*
X149139245Y-90042485D01*
X149329655Y-89915257D01*
X149329660Y-89915253D01*
X149333086Y-89912964D01*
X149336180Y-89910250D01*
X149336186Y-89910246D01*
X149557958Y-89715756D01*
X149561047Y-89713047D01*
X149625668Y-89639361D01*
X149758246Y-89488186D01*
X149758250Y-89488180D01*
X149760964Y-89485086D01*
X149769176Y-89472797D01*
X149927120Y-89236416D01*
X149927121Y-89236414D01*
X149929415Y-89232981D01*
X149986525Y-89117174D01*
X150061693Y-88964750D01*
X150061696Y-88964742D01*
X150063519Y-88961046D01*
X150080615Y-88910682D01*
X150159652Y-88677846D01*
X150159653Y-88677842D01*
X150160980Y-88673933D01*
X150220133Y-88376555D01*
X150239963Y-88074000D01*
X150239693Y-88069880D01*
X150220403Y-87775557D01*
X150220402Y-87775550D01*
X150220133Y-87771445D01*
X150208960Y-87715272D01*
X150161786Y-87478117D01*
X150161784Y-87478111D01*
X150160980Y-87474067D01*
X150063519Y-87186954D01*
X150061696Y-87183258D01*
X150061693Y-87183250D01*
X149931241Y-86918722D01*
X149929415Y-86915019D01*
X149853568Y-86801506D01*
X149763257Y-86666345D01*
X149763253Y-86666340D01*
X149760964Y-86662914D01*
X149758250Y-86659819D01*
X149758239Y-86659805D01*
X149699602Y-86592944D01*
X149669725Y-86528540D01*
X149679410Y-86458207D01*
X149725582Y-86404276D01*
X149793582Y-86383868D01*
X149802573Y-86384136D01*
X149917879Y-86391693D01*
X149917880Y-86391693D01*
X149922000Y-86391963D01*
X149926120Y-86391693D01*
X150220443Y-86372403D01*
X150220450Y-86372402D01*
X150224555Y-86372133D01*
X150228588Y-86371331D01*
X150228594Y-86371330D01*
X150517883Y-86313786D01*
X150517889Y-86313784D01*
X150521933Y-86312980D01*
X150525842Y-86311653D01*
X150525846Y-86311652D01*
X150805140Y-86216845D01*
X150805141Y-86216844D01*
X150809046Y-86215519D01*
X151067536Y-86088046D01*
X151077278Y-86083242D01*
X151077283Y-86083239D01*
X151080982Y-86081415D01*
X151216392Y-85990937D01*
X151329655Y-85915257D01*
X151329660Y-85915253D01*
X151333086Y-85912964D01*
X151336180Y-85910250D01*
X151336186Y-85910246D01*
X151557958Y-85715756D01*
X151561047Y-85713047D01*
X151609270Y-85658059D01*
X151758246Y-85488186D01*
X151758250Y-85488180D01*
X151760964Y-85485086D01*
X151817236Y-85400870D01*
X151927120Y-85236416D01*
X151927121Y-85236414D01*
X151929415Y-85232981D01*
X152023850Y-85041487D01*
X152061693Y-84964750D01*
X152061696Y-84964742D01*
X152063519Y-84961046D01*
X152085943Y-84894988D01*
X152159652Y-84677846D01*
X152159653Y-84677842D01*
X152160980Y-84673933D01*
X152179429Y-84581186D01*
X152219330Y-84380594D01*
X152219331Y-84380588D01*
X152220133Y-84376555D01*
X152223659Y-84322768D01*
X152239693Y-84078120D01*
X152239963Y-84074000D01*
X152237411Y-84035060D01*
X152220403Y-83775557D01*
X152220402Y-83775550D01*
X152220133Y-83771445D01*
X152218787Y-83764675D01*
X152161786Y-83478117D01*
X152161784Y-83478111D01*
X152160980Y-83474067D01*
X152159305Y-83469131D01*
X152064848Y-83190869D01*
X152064848Y-83190868D01*
X152063519Y-83186954D01*
X152061696Y-83183258D01*
X152061693Y-83183250D01*
X151931241Y-82918722D01*
X151929415Y-82915019D01*
X151922000Y-82903922D01*
X151763257Y-82666345D01*
X151763253Y-82666340D01*
X151760964Y-82662914D01*
X151758250Y-82659820D01*
X151758246Y-82659814D01*
X151702350Y-82596078D01*
X151672473Y-82531674D01*
X151682159Y-82461341D01*
X151728331Y-82407409D01*
X151797082Y-82387000D01*
X153292316Y-82387000D01*
X153295103Y-82386751D01*
X153295109Y-82386751D01*
X153383623Y-82378851D01*
X153412587Y-82376266D01*
X153607970Y-82320241D01*
X153788096Y-82226073D01*
X153795402Y-82220115D01*
X153940669Y-82101638D01*
X153945609Y-82097609D01*
X154030364Y-81993689D01*
X154070041Y-81945040D01*
X154070042Y-81945039D01*
X154074073Y-81940096D01*
X154168241Y-81759970D01*
X154224266Y-81564587D01*
X154231716Y-81481117D01*
X154234751Y-81447109D01*
X154234751Y-81447103D01*
X154235000Y-81444316D01*
X154235000Y-78703684D01*
X154224266Y-78583413D01*
X154168241Y-78388030D01*
X154074073Y-78207904D01*
X153958817Y-78066585D01*
X153949638Y-78055331D01*
X153945609Y-78050391D01*
X153940669Y-78046362D01*
X153793040Y-77925959D01*
X153793039Y-77925958D01*
X153788096Y-77921927D01*
X153607970Y-77827759D01*
X153412587Y-77771734D01*
X153380955Y-77768911D01*
X153295109Y-77761249D01*
X153295103Y-77761249D01*
X153292316Y-77761000D01*
X150551684Y-77761000D01*
X150548897Y-77761249D01*
X150548891Y-77761249D01*
X150463045Y-77768911D01*
X150431413Y-77771734D01*
X150236030Y-77827759D01*
X150055904Y-77921927D01*
X150050961Y-77925958D01*
X150050960Y-77925959D01*
X149903331Y-78046362D01*
X149898391Y-78050391D01*
X149894362Y-78055331D01*
X149885184Y-78066585D01*
X149769927Y-78207904D01*
X149766972Y-78213557D01*
X149766971Y-78213558D01*
X149697129Y-78347154D01*
X149647843Y-78398256D01*
X149578753Y-78414600D01*
X149511795Y-78390996D01*
X149502389Y-78383511D01*
X149336186Y-78237754D01*
X149336180Y-78237750D01*
X149333086Y-78235036D01*
X149329660Y-78232747D01*
X149329655Y-78232743D01*
X149139245Y-78105515D01*
X149080982Y-78066585D01*
X149077283Y-78064761D01*
X149077278Y-78064758D01*
X148937634Y-77995894D01*
X148809046Y-77932481D01*
X148769247Y-77918971D01*
X148525846Y-77836348D01*
X148525842Y-77836347D01*
X148521933Y-77835020D01*
X148517889Y-77834216D01*
X148517883Y-77834214D01*
X148228594Y-77776670D01*
X148228588Y-77776669D01*
X148224555Y-77775867D01*
X148220450Y-77775598D01*
X148220443Y-77775597D01*
X147926120Y-77756307D01*
X147922000Y-77756037D01*
X147917880Y-77756307D01*
X147623557Y-77775597D01*
X147623550Y-77775598D01*
X147619445Y-77775867D01*
X147615412Y-77776669D01*
X147615406Y-77776670D01*
X147326117Y-77834214D01*
X147326111Y-77834216D01*
X147322067Y-77835020D01*
X147318158Y-77836347D01*
X147318154Y-77836348D01*
X147074753Y-77918971D01*
X147034954Y-77932481D01*
X147031258Y-77934304D01*
X147031250Y-77934307D01*
X146811051Y-78042898D01*
X146763019Y-78066585D01*
X146759586Y-78068879D01*
X146759584Y-78068880D01*
X146514345Y-78232743D01*
X146514340Y-78232747D01*
X146510914Y-78235036D01*
X146507820Y-78237750D01*
X146507814Y-78237754D01*
X146383068Y-78347154D01*
X146282953Y-78434953D01*
X146280244Y-78438042D01*
X146085754Y-78659814D01*
X146085750Y-78659820D01*
X146083036Y-78662914D01*
X146026765Y-78747130D01*
X145972289Y-78792657D01*
X145901845Y-78801506D01*
X145837801Y-78770865D01*
X145817235Y-78747130D01*
X145760964Y-78662914D01*
X145758250Y-78659820D01*
X145758246Y-78659814D01*
X145563756Y-78438042D01*
X145561047Y-78434953D01*
X145460932Y-78347154D01*
X145336186Y-78237754D01*
X145336180Y-78237750D01*
X145333086Y-78235036D01*
X145329660Y-78232747D01*
X145329655Y-78232743D01*
X145139245Y-78105515D01*
X145080982Y-78066585D01*
X145077283Y-78064761D01*
X145077278Y-78064758D01*
X144937634Y-77995894D01*
X144809046Y-77932481D01*
X144769247Y-77918971D01*
X144525846Y-77836348D01*
X144525842Y-77836347D01*
X144521933Y-77835020D01*
X144517889Y-77834216D01*
X144517883Y-77834214D01*
X144228594Y-77776670D01*
X144228588Y-77776669D01*
X144224555Y-77775867D01*
X144220450Y-77775598D01*
X144220443Y-77775597D01*
X143926120Y-77756307D01*
X143922000Y-77756037D01*
X143917880Y-77756307D01*
X143623557Y-77775597D01*
X143623550Y-77775598D01*
X143619445Y-77775867D01*
X143615412Y-77776669D01*
X143615406Y-77776670D01*
X143326117Y-77834214D01*
X143326111Y-77834216D01*
X143322067Y-77835020D01*
X143318158Y-77836347D01*
X143318154Y-77836348D01*
X143074753Y-77918971D01*
X143034954Y-77932481D01*
X143031258Y-77934304D01*
X143031250Y-77934307D01*
X142811051Y-78042898D01*
X142763019Y-78066585D01*
X142759586Y-78068879D01*
X142759584Y-78068880D01*
X142514345Y-78232743D01*
X142514340Y-78232747D01*
X142510914Y-78235036D01*
X142507820Y-78237750D01*
X142507814Y-78237754D01*
X142383068Y-78347154D01*
X142282953Y-78434953D01*
X142280244Y-78438042D01*
X142085754Y-78659814D01*
X142085750Y-78659820D01*
X142083036Y-78662914D01*
X142026765Y-78747130D01*
X141972289Y-78792657D01*
X141901845Y-78801506D01*
X141837801Y-78770865D01*
X141817235Y-78747130D01*
X141760964Y-78662914D01*
X141758250Y-78659820D01*
X141758246Y-78659814D01*
X141563756Y-78438042D01*
X141561047Y-78434953D01*
X141460932Y-78347154D01*
X141336186Y-78237754D01*
X141336180Y-78237750D01*
X141333086Y-78235036D01*
X141329660Y-78232747D01*
X141329655Y-78232743D01*
X141139245Y-78105515D01*
X141080982Y-78066585D01*
X141077283Y-78064761D01*
X141077278Y-78064758D01*
X140937634Y-77995894D01*
X140809046Y-77932481D01*
X140769247Y-77918971D01*
X140525846Y-77836348D01*
X140525842Y-77836347D01*
X140521933Y-77835020D01*
X140517889Y-77834216D01*
X140517883Y-77834214D01*
X140228594Y-77776670D01*
X140228588Y-77776669D01*
X140224555Y-77775867D01*
X140220450Y-77775598D01*
X140220443Y-77775597D01*
X139926120Y-77756307D01*
X139922000Y-77756037D01*
X139917880Y-77756307D01*
X139623557Y-77775597D01*
X139623550Y-77775598D01*
X139619445Y-77775867D01*
X139615412Y-77776669D01*
X139615406Y-77776670D01*
X139326117Y-77834214D01*
X139326111Y-77834216D01*
X139322067Y-77835020D01*
X139318158Y-77836347D01*
X139318154Y-77836348D01*
X139074753Y-77918971D01*
X139034954Y-77932481D01*
X139031258Y-77934304D01*
X139031250Y-77934307D01*
X138811051Y-78042898D01*
X138763019Y-78066585D01*
X138759586Y-78068879D01*
X138759584Y-78068880D01*
X138514345Y-78232743D01*
X138514340Y-78232747D01*
X138510914Y-78235036D01*
X138507820Y-78237750D01*
X138507814Y-78237754D01*
X138383068Y-78347154D01*
X138282953Y-78434953D01*
X138280244Y-78438042D01*
X138085754Y-78659814D01*
X138085750Y-78659820D01*
X138083036Y-78662914D01*
X138026765Y-78747130D01*
X137972289Y-78792657D01*
X137901845Y-78801506D01*
X137837801Y-78770865D01*
X137817235Y-78747130D01*
X137760964Y-78662914D01*
X137758250Y-78659820D01*
X137758246Y-78659814D01*
X137563756Y-78438042D01*
X137561047Y-78434953D01*
X137460932Y-78347154D01*
X137336186Y-78237754D01*
X137336180Y-78237750D01*
X137333086Y-78235036D01*
X137329660Y-78232747D01*
X137329655Y-78232743D01*
X137139245Y-78105515D01*
X137080982Y-78066585D01*
X137077283Y-78064761D01*
X137077278Y-78064758D01*
X136937634Y-77995894D01*
X136809046Y-77932481D01*
X136769247Y-77918971D01*
X136525846Y-77836348D01*
X136525842Y-77836347D01*
X136521933Y-77835020D01*
X136517889Y-77834216D01*
X136517883Y-77834214D01*
X136228594Y-77776670D01*
X136228588Y-77776669D01*
X136224555Y-77775867D01*
X136220450Y-77775598D01*
X136220443Y-77775597D01*
X135926120Y-77756307D01*
X135922000Y-77756037D01*
X135917880Y-77756307D01*
X135623557Y-77775597D01*
X135623550Y-77775598D01*
X135619445Y-77775867D01*
X135615412Y-77776669D01*
X135615406Y-77776670D01*
X135326117Y-77834214D01*
X135326111Y-77834216D01*
X135322067Y-77835020D01*
X135318158Y-77836347D01*
X135318154Y-77836348D01*
X135074753Y-77918971D01*
X135034954Y-77932481D01*
X135031258Y-77934304D01*
X135031250Y-77934307D01*
X134811051Y-78042898D01*
X134763019Y-78066585D01*
X134759586Y-78068879D01*
X134759584Y-78068880D01*
X134514345Y-78232743D01*
X134514340Y-78232747D01*
X134510914Y-78235036D01*
X134507820Y-78237750D01*
X134507814Y-78237754D01*
X134383068Y-78347154D01*
X134282953Y-78434953D01*
X134280244Y-78438042D01*
X134085754Y-78659814D01*
X134085750Y-78659820D01*
X134083036Y-78662914D01*
X134026765Y-78747130D01*
X133972289Y-78792657D01*
X133901845Y-78801506D01*
X133837801Y-78770865D01*
X133817235Y-78747130D01*
X133760964Y-78662914D01*
X133758250Y-78659820D01*
X133758246Y-78659814D01*
X133563756Y-78438042D01*
X133561047Y-78434953D01*
X133460932Y-78347154D01*
X133336186Y-78237754D01*
X133336180Y-78237750D01*
X133333086Y-78235036D01*
X133329660Y-78232747D01*
X133329655Y-78232743D01*
X133139245Y-78105515D01*
X133080982Y-78066585D01*
X133077283Y-78064761D01*
X133077278Y-78064758D01*
X132937634Y-77995894D01*
X132809046Y-77932481D01*
X132769247Y-77918971D01*
X132525846Y-77836348D01*
X132525842Y-77836347D01*
X132521933Y-77835020D01*
X132517889Y-77834216D01*
X132517883Y-77834214D01*
X132228594Y-77776670D01*
X132228588Y-77776669D01*
X132224555Y-77775867D01*
X132220450Y-77775598D01*
X132220443Y-77775597D01*
X131926120Y-77756307D01*
X131922000Y-77756037D01*
X131917880Y-77756307D01*
X131623557Y-77775597D01*
X131623550Y-77775598D01*
X131619445Y-77775867D01*
X131615412Y-77776669D01*
X131615406Y-77776670D01*
X131326117Y-77834214D01*
X131326111Y-77834216D01*
X131322067Y-77835020D01*
X131318158Y-77836347D01*
X131318154Y-77836348D01*
X131074753Y-77918971D01*
X131034954Y-77932481D01*
X131031258Y-77934304D01*
X131031250Y-77934307D01*
X130811051Y-78042898D01*
X130763019Y-78066585D01*
X130759586Y-78068879D01*
X130759584Y-78068880D01*
X130514345Y-78232743D01*
X130514340Y-78232747D01*
X130510914Y-78235036D01*
X130507820Y-78237750D01*
X130507814Y-78237754D01*
X130383068Y-78347154D01*
X130282953Y-78434953D01*
X130280244Y-78438042D01*
X130085754Y-78659814D01*
X130085750Y-78659820D01*
X130083036Y-78662914D01*
X130026765Y-78747130D01*
X129972289Y-78792657D01*
X129901845Y-78801506D01*
X129837801Y-78770865D01*
X129817235Y-78747130D01*
X129760964Y-78662914D01*
X129758250Y-78659820D01*
X129758246Y-78659814D01*
X129563756Y-78438042D01*
X129561047Y-78434953D01*
X129460932Y-78347154D01*
X129336186Y-78237754D01*
X129336180Y-78237750D01*
X129333086Y-78235036D01*
X129329660Y-78232747D01*
X129329655Y-78232743D01*
X129139245Y-78105515D01*
X129080982Y-78066585D01*
X129077283Y-78064761D01*
X129077278Y-78064758D01*
X128937634Y-77995894D01*
X128809046Y-77932481D01*
X128769247Y-77918971D01*
X128525846Y-77836348D01*
X128525842Y-77836347D01*
X128521933Y-77835020D01*
X128517889Y-77834216D01*
X128517883Y-77834214D01*
X128228594Y-77776670D01*
X128228588Y-77776669D01*
X128224555Y-77775867D01*
X128220450Y-77775598D01*
X128220443Y-77775597D01*
X127926120Y-77756307D01*
X127922000Y-77756037D01*
X127917880Y-77756307D01*
X127623560Y-77775597D01*
X127623556Y-77775598D01*
X127619445Y-77775867D01*
X127615405Y-77776671D01*
X127615402Y-77776671D01*
X127496073Y-77800407D01*
X127425359Y-77794079D01*
X127382397Y-77765923D01*
X126012490Y-76396016D01*
X126001622Y-76383625D01*
X125991620Y-76370590D01*
X125988210Y-76366146D01*
X125928324Y-76311654D01*
X125924029Y-76307555D01*
X125908194Y-76291720D01*
X125888296Y-76275083D01*
X125884331Y-76271624D01*
X125874065Y-76262282D01*
X125823107Y-76215914D01*
X125808052Y-76206470D01*
X125794193Y-76196400D01*
X125784868Y-76188603D01*
X125784866Y-76188602D01*
X125780562Y-76185003D01*
X125748325Y-76166615D01*
X125708663Y-76143992D01*
X125704157Y-76141296D01*
X125634010Y-76097293D01*
X125617521Y-76090665D01*
X125602091Y-76083205D01*
X125591539Y-76077186D01*
X125591537Y-76077185D01*
X125586663Y-76074405D01*
X125508639Y-76046775D01*
X125503703Y-76044910D01*
X125432094Y-76016124D01*
X125426895Y-76014034D01*
X125421409Y-76012898D01*
X125421403Y-76012896D01*
X125409494Y-76010430D01*
X125392998Y-76005825D01*
X125376244Y-75999892D01*
X125319796Y-75990648D01*
X125294551Y-75986514D01*
X125289363Y-75985552D01*
X125222946Y-75971798D01*
X125208310Y-75968767D01*
X125203699Y-75968501D01*
X125203698Y-75968501D01*
X125180739Y-75967177D01*
X125167636Y-75965730D01*
X125161502Y-75964726D01*
X125161496Y-75964726D01*
X125155954Y-75963818D01*
X125150340Y-75963906D01*
X125150338Y-75963906D01*
X125049895Y-75965484D01*
X125047916Y-75965500D01*
X105246862Y-75965500D01*
X105230415Y-75964422D01*
X105208578Y-75961547D01*
X105202978Y-75961811D01*
X105202977Y-75961811D01*
X105127722Y-75965360D01*
X105121787Y-75965500D01*
X105099370Y-75965500D01*
X105096586Y-75965748D01*
X105096574Y-75965749D01*
X105073561Y-75967803D01*
X105068298Y-75968162D01*
X105039120Y-75969538D01*
X104985602Y-75972062D01*
X104968279Y-75976029D01*
X104951360Y-75978709D01*
X104947823Y-75979025D01*
X104933661Y-75980289D01*
X104928251Y-75981769D01*
X104853832Y-76002128D01*
X104848714Y-76003414D01*
X104773483Y-76020644D01*
X104773481Y-76020645D01*
X104768013Y-76021897D01*
X104762856Y-76024097D01*
X104762846Y-76024100D01*
X104751674Y-76028866D01*
X104735484Y-76034505D01*
X104718349Y-76039192D01*
X104643623Y-76074835D01*
X104638843Y-76076993D01*
X104638391Y-76077186D01*
X104562687Y-76109476D01*
X104547829Y-76119236D01*
X104532909Y-76127642D01*
X104516871Y-76135292D01*
X104512315Y-76138566D01*
X104512313Y-76138567D01*
X104449646Y-76183598D01*
X104445297Y-76186587D01*
X104376116Y-76232030D01*
X104372666Y-76235104D01*
X104372658Y-76235110D01*
X104355492Y-76250404D01*
X104345205Y-76258646D01*
X104335595Y-76265552D01*
X104308303Y-76293715D01*
X104261714Y-76341791D01*
X104260325Y-76343201D01*
X101128851Y-79474675D01*
X101066539Y-79508701D01*
X100995724Y-79503636D01*
X100968752Y-79489669D01*
X100956895Y-79481581D01*
X100939700Y-79469851D01*
X100935017Y-79467677D01*
X100935013Y-79467675D01*
X100720591Y-79368144D01*
X100720587Y-79368143D01*
X100715896Y-79365965D01*
X100478129Y-79300026D01*
X100472992Y-79299477D01*
X100280043Y-79278856D01*
X100280035Y-79278856D01*
X100276708Y-79278500D01*
X100133446Y-79278500D01*
X100130873Y-79278712D01*
X100130862Y-79278712D01*
X99955240Y-79293151D01*
X99955234Y-79293152D01*
X99950089Y-79293575D01*
X99710783Y-79353684D01*
X99484507Y-79452072D01*
X99277339Y-79586095D01*
X99273514Y-79589575D01*
X99273512Y-79589577D01*
X99118313Y-79730797D01*
X99054467Y-79761849D01*
X98983969Y-79753453D01*
X98951735Y-79732176D01*
X98951291Y-79732724D01*
X98947269Y-79729467D01*
X98943532Y-79725896D01*
X98915212Y-79706577D01*
X98743979Y-79589770D01*
X98743980Y-79589770D01*
X98739700Y-79586851D01*
X98530339Y-79489669D01*
X98520591Y-79485144D01*
X98520587Y-79485143D01*
X98515896Y-79482965D01*
X98278129Y-79417026D01*
X98272992Y-79416477D01*
X98080043Y-79395856D01*
X98080035Y-79395856D01*
X98076708Y-79395500D01*
X97933446Y-79395500D01*
X97930873Y-79395712D01*
X97930862Y-79395712D01*
X97755240Y-79410151D01*
X97755234Y-79410152D01*
X97750089Y-79410575D01*
X97510783Y-79470684D01*
X97284507Y-79569072D01*
X97077339Y-79703095D01*
X97073514Y-79706575D01*
X97073512Y-79706577D01*
X97052281Y-79725896D01*
X96894842Y-79869154D01*
X96891643Y-79873205D01*
X96891639Y-79873209D01*
X96745119Y-80058736D01*
X96745116Y-80058741D01*
X96741918Y-80062790D01*
X96739425Y-80067306D01*
X96739423Y-80067309D01*
X96654851Y-80220512D01*
X96622673Y-80278802D01*
X96620949Y-80283671D01*
X96620947Y-80283675D01*
X96542035Y-80506515D01*
X96540309Y-80511390D01*
X96539402Y-80516483D01*
X96539401Y-80516486D01*
X96500053Y-80737388D01*
X96497039Y-80754306D01*
X96494025Y-81001028D01*
X93535111Y-81001028D01*
X93451299Y-80854388D01*
X93290223Y-80650064D01*
X93100714Y-80471792D01*
X92928214Y-80352124D01*
X92890779Y-80326154D01*
X92890776Y-80326152D01*
X92886937Y-80323489D01*
X92882747Y-80321423D01*
X92882744Y-80321421D01*
X92657775Y-80210479D01*
X92657772Y-80210478D01*
X92653587Y-80208414D01*
X92647574Y-80206489D01*
X92529690Y-80168754D01*
X92405792Y-80129094D01*
X92265569Y-80106257D01*
X92153606Y-80088023D01*
X92153605Y-80088023D01*
X92148994Y-80087272D01*
X92018915Y-80085569D01*
X91893512Y-80083927D01*
X91893509Y-80083927D01*
X91888835Y-80083866D01*
X91631030Y-80118952D01*
X91381243Y-80191758D01*
X91376990Y-80193718D01*
X91376989Y-80193719D01*
X91340634Y-80210479D01*
X91144961Y-80300686D01*
X91141056Y-80303246D01*
X91141051Y-80303249D01*
X90931288Y-80440775D01*
X90931283Y-80440779D01*
X90927375Y-80443341D01*
X90733265Y-80616591D01*
X90708088Y-80646864D01*
X90691067Y-80667329D01*
X90632130Y-80706913D01*
X90561148Y-80708350D01*
X90500657Y-80671182D01*
X90469643Y-80605819D01*
X90461435Y-80552183D01*
X90460653Y-80547070D01*
X90383997Y-80312540D01*
X90288501Y-80129094D01*
X90272454Y-80098268D01*
X90272453Y-80098267D01*
X90270065Y-80093679D01*
X90265819Y-80088023D01*
X90125022Y-79900499D01*
X90125020Y-79900496D01*
X90121917Y-79896364D01*
X89972369Y-79753453D01*
X89947269Y-79729467D01*
X89947268Y-79729466D01*
X89943532Y-79725896D01*
X89915212Y-79706577D01*
X89743979Y-79589770D01*
X89743980Y-79589770D01*
X89739700Y-79586851D01*
X89530339Y-79489669D01*
X89520591Y-79485144D01*
X89520587Y-79485143D01*
X89515896Y-79482965D01*
X89278129Y-79417026D01*
X89272992Y-79416477D01*
X89080043Y-79395856D01*
X89080035Y-79395856D01*
X89076708Y-79395500D01*
X88933446Y-79395500D01*
X88930873Y-79395712D01*
X88930862Y-79395712D01*
X88755240Y-79410151D01*
X88755234Y-79410152D01*
X88750089Y-79410575D01*
X88593102Y-79450007D01*
X88532695Y-79465180D01*
X88461754Y-79462376D01*
X88403591Y-79421663D01*
X88376672Y-79355967D01*
X88376000Y-79342976D01*
X88376000Y-73242497D01*
X112216637Y-73242497D01*
X112216881Y-73246932D01*
X112216881Y-73246936D01*
X112220105Y-73305503D01*
X112232205Y-73525370D01*
X112287474Y-73803226D01*
X112288950Y-73807429D01*
X112310181Y-73867885D01*
X112381342Y-74070524D01*
X112383395Y-74074477D01*
X112383398Y-74074483D01*
X112457360Y-74216865D01*
X112511936Y-74321928D01*
X112514519Y-74325543D01*
X112514523Y-74325549D01*
X112547176Y-74371242D01*
X112676651Y-74552424D01*
X112679729Y-74555651D01*
X112679731Y-74555653D01*
X112722355Y-74600334D01*
X112872199Y-74757412D01*
X113094680Y-74932801D01*
X113204927Y-74996837D01*
X113335807Y-75072859D01*
X113335813Y-75072862D01*
X113339654Y-75075093D01*
X113602232Y-75181448D01*
X113606545Y-75182519D01*
X113606550Y-75182521D01*
X113872856Y-75248672D01*
X113872861Y-75248673D01*
X113877177Y-75249745D01*
X113881605Y-75250199D01*
X113881607Y-75250199D01*
X113957307Y-75257955D01*
X114118790Y-75274500D01*
X114294170Y-75274500D01*
X114504593Y-75259601D01*
X114508948Y-75258663D01*
X114508951Y-75258663D01*
X114777200Y-75200911D01*
X114777202Y-75200911D01*
X114781547Y-75199975D01*
X115047337Y-75101920D01*
X115296660Y-74967393D01*
X115524540Y-74799078D01*
X115726430Y-74600334D01*
X115729131Y-74596794D01*
X115729137Y-74596788D01*
X115895602Y-74378667D01*
X115895605Y-74378663D01*
X115898304Y-74375126D01*
X116036730Y-74127947D01*
X116058946Y-74070524D01*
X116137341Y-73867885D01*
X116137343Y-73867879D01*
X116138948Y-73863730D01*
X116202918Y-73587747D01*
X116227363Y-73305503D01*
X116224140Y-73246936D01*
X116223896Y-73242497D01*
X159616637Y-73242497D01*
X159616881Y-73246932D01*
X159616881Y-73246936D01*
X159620105Y-73305503D01*
X159632205Y-73525370D01*
X159687474Y-73803226D01*
X159688950Y-73807429D01*
X159710181Y-73867885D01*
X159781342Y-74070524D01*
X159783395Y-74074477D01*
X159783398Y-74074483D01*
X159857360Y-74216865D01*
X159911936Y-74321928D01*
X159914519Y-74325543D01*
X159914523Y-74325549D01*
X159947176Y-74371242D01*
X160076651Y-74552424D01*
X160079729Y-74555651D01*
X160079731Y-74555653D01*
X160122355Y-74600334D01*
X160272199Y-74757412D01*
X160494680Y-74932801D01*
X160604927Y-74996837D01*
X160735807Y-75072859D01*
X160735813Y-75072862D01*
X160739654Y-75075093D01*
X161002232Y-75181448D01*
X161006545Y-75182519D01*
X161006550Y-75182521D01*
X161272856Y-75248672D01*
X161272861Y-75248673D01*
X161277177Y-75249745D01*
X161281605Y-75250199D01*
X161281607Y-75250199D01*
X161357307Y-75257955D01*
X161518790Y-75274500D01*
X161694170Y-75274500D01*
X161904593Y-75259601D01*
X161908948Y-75258663D01*
X161908951Y-75258663D01*
X162177200Y-75200911D01*
X162177202Y-75200911D01*
X162181547Y-75199975D01*
X162447337Y-75101920D01*
X162696660Y-74967393D01*
X162924540Y-74799078D01*
X163126430Y-74600334D01*
X163129131Y-74596794D01*
X163129137Y-74596788D01*
X163295602Y-74378667D01*
X163295605Y-74378663D01*
X163298304Y-74375126D01*
X163436730Y-74127947D01*
X163458946Y-74070524D01*
X163537341Y-73867885D01*
X163537343Y-73867879D01*
X163538948Y-73863730D01*
X163602918Y-73587747D01*
X163627363Y-73305503D01*
X163624140Y-73246936D01*
X163612040Y-73027073D01*
X163612039Y-73027066D01*
X163611795Y-73022630D01*
X163556526Y-72744774D01*
X163535279Y-72684270D01*
X163464136Y-72481684D01*
X163464135Y-72481681D01*
X163462658Y-72477476D01*
X163460605Y-72473523D01*
X163460602Y-72473517D01*
X163334116Y-72230023D01*
X163332064Y-72226072D01*
X163329481Y-72222457D01*
X163329477Y-72222451D01*
X163249858Y-72111037D01*
X163167349Y-71995576D01*
X163125028Y-71951212D01*
X162974876Y-71793811D01*
X162974873Y-71793808D01*
X162971801Y-71790588D01*
X162749320Y-71615199D01*
X162639073Y-71551163D01*
X162508193Y-71475141D01*
X162508187Y-71475138D01*
X162504346Y-71472907D01*
X162241768Y-71366552D01*
X162237455Y-71365481D01*
X162237450Y-71365479D01*
X161971144Y-71299328D01*
X161971139Y-71299327D01*
X161966823Y-71298255D01*
X161962395Y-71297801D01*
X161962393Y-71297801D01*
X161867552Y-71288084D01*
X161725210Y-71273500D01*
X161549830Y-71273500D01*
X161339407Y-71288399D01*
X161335052Y-71289337D01*
X161335049Y-71289337D01*
X161066800Y-71347089D01*
X161066798Y-71347089D01*
X161062453Y-71348025D01*
X160796663Y-71446080D01*
X160547340Y-71580607D01*
X160319460Y-71748922D01*
X160117570Y-71947666D01*
X160114869Y-71951206D01*
X160114863Y-71951212D01*
X160078237Y-71999204D01*
X159945696Y-72172874D01*
X159807270Y-72420053D01*
X159805662Y-72424211D01*
X159805659Y-72424216D01*
X159706659Y-72680115D01*
X159705052Y-72684270D01*
X159641082Y-72960253D01*
X159616637Y-73242497D01*
X116223896Y-73242497D01*
X116212040Y-73027073D01*
X116212039Y-73027066D01*
X116211795Y-73022630D01*
X116156526Y-72744774D01*
X116135279Y-72684270D01*
X116064136Y-72481684D01*
X116064135Y-72481681D01*
X116062658Y-72477476D01*
X116060605Y-72473523D01*
X116060602Y-72473517D01*
X115934116Y-72230023D01*
X115932064Y-72226072D01*
X115929481Y-72222457D01*
X115929477Y-72222451D01*
X115849858Y-72111037D01*
X115767349Y-71995576D01*
X115725028Y-71951212D01*
X115574876Y-71793811D01*
X115574873Y-71793808D01*
X115571801Y-71790588D01*
X115349320Y-71615199D01*
X115239073Y-71551163D01*
X115108193Y-71475141D01*
X115108187Y-71475138D01*
X115104346Y-71472907D01*
X114841768Y-71366552D01*
X114837455Y-71365481D01*
X114837450Y-71365479D01*
X114571144Y-71299328D01*
X114571139Y-71299327D01*
X114566823Y-71298255D01*
X114562395Y-71297801D01*
X114562393Y-71297801D01*
X114467552Y-71288084D01*
X114325210Y-71273500D01*
X114149830Y-71273500D01*
X113939407Y-71288399D01*
X113935052Y-71289337D01*
X113935049Y-71289337D01*
X113666800Y-71347089D01*
X113666798Y-71347089D01*
X113662453Y-71348025D01*
X113396663Y-71446080D01*
X113147340Y-71580607D01*
X112919460Y-71748922D01*
X112717570Y-71947666D01*
X112714869Y-71951206D01*
X112714863Y-71951212D01*
X112678237Y-71999204D01*
X112545696Y-72172874D01*
X112407270Y-72420053D01*
X112405662Y-72424211D01*
X112405659Y-72424216D01*
X112306659Y-72680115D01*
X112305052Y-72684270D01*
X112241082Y-72960253D01*
X112216637Y-73242497D01*
X88376000Y-73242497D01*
X88376000Y-68436000D01*
X88396002Y-68367879D01*
X88449658Y-68321386D01*
X88502000Y-68310000D01*
X168038000Y-68310000D01*
X168106121Y-68330002D01*
G37*
%TD.AperFunction*%
%TD*%
M02*
