%TF.GenerationSoftware,KiCad,Pcbnew,(6.0.1)*%
%TF.CreationDate,2022-08-22T15:29:29+03:00*%
%TF.ProjectId,Input Connector,496e7075-7420-4436-9f6e-6e6563746f72,rev?*%
%TF.SameCoordinates,Original*%
%TF.FileFunction,Copper,L2,Bot*%
%TF.FilePolarity,Positive*%
%FSLAX46Y46*%
G04 Gerber Fmt 4.6, Leading zero omitted, Abs format (unit mm)*
G04 Created by KiCad (PCBNEW (6.0.1)) date 2022-08-22 15:29:29*
%MOMM*%
%LPD*%
G01*
G04 APERTURE LIST*
G04 Aperture macros list*
%AMRoundRect*
0 Rectangle with rounded corners*
0 $1 Rounding radius*
0 $2 $3 $4 $5 $6 $7 $8 $9 X,Y pos of 4 corners*
0 Add a 4 corners polygon primitive as box body*
4,1,4,$2,$3,$4,$5,$6,$7,$8,$9,$2,$3,0*
0 Add four circle primitives for the rounded corners*
1,1,$1+$1,$2,$3*
1,1,$1+$1,$4,$5*
1,1,$1+$1,$6,$7*
1,1,$1+$1,$8,$9*
0 Add four rect primitives between the rounded corners*
20,1,$1+$1,$2,$3,$4,$5,0*
20,1,$1+$1,$4,$5,$6,$7,0*
20,1,$1+$1,$6,$7,$8,$9,0*
20,1,$1+$1,$8,$9,$2,$3,0*%
G04 Aperture macros list end*
%TA.AperFunction,ComponentPad*%
%ADD10RoundRect,0.250001X0.499999X0.499999X-0.499999X0.499999X-0.499999X-0.499999X0.499999X-0.499999X0*%
%TD*%
%TA.AperFunction,ComponentPad*%
%ADD11C,1.500000*%
%TD*%
%TA.AperFunction,ComponentPad*%
%ADD12R,2.625000X2.625000*%
%TD*%
%TA.AperFunction,ComponentPad*%
%ADD13C,2.625000*%
%TD*%
%TA.AperFunction,Conductor*%
%ADD14C,0.500000*%
%TD*%
G04 APERTURE END LIST*
D10*
%TO.P,J3,1,Pin_1*%
%TO.N,GNDD*%
X94996000Y-84836000D03*
D11*
%TO.P,J3,2,Pin_2*%
%TO.N,VDD*%
X91996000Y-84836000D03*
%TO.P,J3,3,Pin_3*%
%TO.N,GNDD*%
X94996000Y-81836000D03*
%TO.P,J3,4,Pin_4*%
%TO.N,VDD*%
X91996000Y-81836000D03*
%TD*%
D10*
%TO.P,J2,1,Pin_1*%
%TO.N,/Z*%
X112196000Y-84719000D03*
D11*
%TO.P,J2,2,Pin_2*%
%TO.N,/A*%
X109196000Y-84719000D03*
%TO.P,J2,3,Pin_3*%
%TO.N,GND*%
X106196000Y-84719000D03*
%TO.P,J2,4,Pin_4*%
%TO.N,/CANH*%
X103196000Y-84719000D03*
%TO.P,J2,5,Pin_5*%
%TO.N,/Y*%
X112196000Y-81719000D03*
%TO.P,J2,6,Pin_6*%
%TO.N,/B*%
X109196000Y-81719000D03*
%TO.P,J2,7,Pin_7*%
%TO.N,GND*%
X106196000Y-81719000D03*
%TO.P,J2,8,Pin_8*%
%TO.N,/CANL*%
X103196000Y-81719000D03*
%TD*%
D12*
%TO.P,J1,1,1*%
%TO.N,VDD*%
X151922000Y-80074000D03*
D13*
%TO.P,J1,2,2*%
%TO.N,unconnected-(J1-Pad2)*%
X147922000Y-80074000D03*
%TO.P,J1,3,3*%
%TO.N,unconnected-(J1-Pad3)*%
X143922000Y-80074000D03*
%TO.P,J1,4,4*%
%TO.N,unconnected-(J1-Pad4)*%
X139922000Y-80074000D03*
%TO.P,J1,5,5*%
%TO.N,unconnected-(J1-Pad5)*%
X135922000Y-80074000D03*
%TO.P,J1,6,6*%
%TO.N,unconnected-(J1-Pad6)*%
X131922000Y-80074000D03*
%TO.P,J1,7,7*%
%TO.N,/CANH*%
X127922000Y-80074000D03*
%TO.P,J1,8,8*%
%TO.N,/CANL*%
X123922000Y-80074000D03*
%TO.P,J1,9,9*%
%TO.N,unconnected-(J1-Pad9)*%
X149922000Y-84074000D03*
%TO.P,J1,10,10*%
%TO.N,unconnected-(J1-Pad10)*%
X145922000Y-84074000D03*
%TO.P,J1,11,11*%
%TO.N,unconnected-(J1-Pad11)*%
X141922000Y-84074000D03*
%TO.P,J1,12,12*%
%TO.N,unconnected-(J1-Pad12)*%
X137922000Y-84074000D03*
%TO.P,J1,13,13*%
%TO.N,unconnected-(J1-Pad13)*%
X133922000Y-84074000D03*
%TO.P,J1,14,14*%
%TO.N,/A*%
X129922000Y-84074000D03*
%TO.P,J1,15,15*%
%TO.N,/B*%
X125922000Y-84074000D03*
%TO.P,J1,16,16*%
%TO.N,GNDD*%
X151922000Y-88074000D03*
%TO.P,J1,17,17*%
%TO.N,unconnected-(J1-Pad17)*%
X147922000Y-88074000D03*
%TO.P,J1,18,18*%
%TO.N,unconnected-(J1-Pad18)*%
X143922000Y-88074000D03*
%TO.P,J1,19,19*%
%TO.N,unconnected-(J1-Pad19)*%
X139922000Y-88074000D03*
%TO.P,J1,20,20*%
%TO.N,unconnected-(J1-Pad20)*%
X135922000Y-88074000D03*
%TO.P,J1,21,21*%
%TO.N,GND*%
X131922000Y-88074000D03*
%TO.P,J1,22,22*%
%TO.N,/Y*%
X127922000Y-88074000D03*
%TO.P,J1,23,23*%
%TO.N,/Z*%
X123922000Y-88074000D03*
%TD*%
D14*
%TO.N,/Y*%
X127922000Y-88074000D02*
X126159989Y-86311989D01*
X116788989Y-86311989D02*
X112196000Y-81719000D01*
X126159989Y-86311989D02*
X116788989Y-86311989D01*
%TO.N,/Z*%
X123922000Y-88074000D02*
X115551000Y-88074000D01*
X115551000Y-88074000D02*
X112196000Y-84719000D01*
%TD*%
%TA.AperFunction,Conductor*%
%TO.N,VDD*%
G36*
X168106121Y-68330002D02*
G01*
X168152614Y-68383658D01*
X168164000Y-68436000D01*
X168164000Y-99712000D01*
X168143998Y-99780121D01*
X168090342Y-99826614D01*
X168038000Y-99838000D01*
X88502000Y-99838000D01*
X88433879Y-99817998D01*
X88387386Y-99764342D01*
X88376000Y-99712000D01*
X88376000Y-91342497D01*
X110716637Y-91342497D01*
X110716881Y-91346932D01*
X110716881Y-91346936D01*
X110720105Y-91405503D01*
X110732205Y-91625370D01*
X110787474Y-91903226D01*
X110788950Y-91907429D01*
X110810181Y-91967885D01*
X110881342Y-92170524D01*
X110883395Y-92174477D01*
X110883398Y-92174483D01*
X110957360Y-92316865D01*
X111011936Y-92421928D01*
X111014519Y-92425543D01*
X111014523Y-92425549D01*
X111047176Y-92471242D01*
X111176651Y-92652424D01*
X111179729Y-92655651D01*
X111179731Y-92655653D01*
X111222355Y-92700334D01*
X111372199Y-92857412D01*
X111594680Y-93032801D01*
X111704927Y-93096837D01*
X111835807Y-93172859D01*
X111835813Y-93172862D01*
X111839654Y-93175093D01*
X112102232Y-93281448D01*
X112106545Y-93282519D01*
X112106550Y-93282521D01*
X112372856Y-93348672D01*
X112372861Y-93348673D01*
X112377177Y-93349745D01*
X112381605Y-93350199D01*
X112381607Y-93350199D01*
X112457307Y-93357955D01*
X112618790Y-93374500D01*
X112794170Y-93374500D01*
X113004593Y-93359601D01*
X113008948Y-93358663D01*
X113008951Y-93358663D01*
X113277200Y-93300911D01*
X113277202Y-93300911D01*
X113281547Y-93299975D01*
X113547337Y-93201920D01*
X113796660Y-93067393D01*
X114024540Y-92899078D01*
X114226430Y-92700334D01*
X114229131Y-92696794D01*
X114229137Y-92696788D01*
X114395602Y-92478667D01*
X114395605Y-92478663D01*
X114398304Y-92475126D01*
X114536730Y-92227947D01*
X114558946Y-92170524D01*
X114637341Y-91967885D01*
X114637343Y-91967879D01*
X114638948Y-91963730D01*
X114702918Y-91687747D01*
X114727363Y-91405503D01*
X114724140Y-91346936D01*
X114723896Y-91342497D01*
X161116637Y-91342497D01*
X161116881Y-91346932D01*
X161116881Y-91346936D01*
X161120105Y-91405503D01*
X161132205Y-91625370D01*
X161187474Y-91903226D01*
X161188950Y-91907429D01*
X161210181Y-91967885D01*
X161281342Y-92170524D01*
X161283395Y-92174477D01*
X161283398Y-92174483D01*
X161357360Y-92316865D01*
X161411936Y-92421928D01*
X161414519Y-92425543D01*
X161414523Y-92425549D01*
X161447176Y-92471242D01*
X161576651Y-92652424D01*
X161579729Y-92655651D01*
X161579731Y-92655653D01*
X161622355Y-92700334D01*
X161772199Y-92857412D01*
X161994680Y-93032801D01*
X162104927Y-93096837D01*
X162235807Y-93172859D01*
X162235813Y-93172862D01*
X162239654Y-93175093D01*
X162502232Y-93281448D01*
X162506545Y-93282519D01*
X162506550Y-93282521D01*
X162772856Y-93348672D01*
X162772861Y-93348673D01*
X162777177Y-93349745D01*
X162781605Y-93350199D01*
X162781607Y-93350199D01*
X162857307Y-93357955D01*
X163018790Y-93374500D01*
X163194170Y-93374500D01*
X163404593Y-93359601D01*
X163408948Y-93358663D01*
X163408951Y-93358663D01*
X163677200Y-93300911D01*
X163677202Y-93300911D01*
X163681547Y-93299975D01*
X163947337Y-93201920D01*
X164196660Y-93067393D01*
X164424540Y-92899078D01*
X164626430Y-92700334D01*
X164629131Y-92696794D01*
X164629137Y-92696788D01*
X164795602Y-92478667D01*
X164795605Y-92478663D01*
X164798304Y-92475126D01*
X164936730Y-92227947D01*
X164958946Y-92170524D01*
X165037341Y-91967885D01*
X165037343Y-91967879D01*
X165038948Y-91963730D01*
X165102918Y-91687747D01*
X165127363Y-91405503D01*
X165124140Y-91346936D01*
X165112040Y-91127073D01*
X165112039Y-91127066D01*
X165111795Y-91122630D01*
X165056526Y-90844774D01*
X165035279Y-90784270D01*
X164964136Y-90581684D01*
X164964135Y-90581681D01*
X164962658Y-90577476D01*
X164960605Y-90573523D01*
X164960602Y-90573517D01*
X164855991Y-90372133D01*
X164832064Y-90326072D01*
X164829481Y-90322457D01*
X164829477Y-90322451D01*
X164749858Y-90211037D01*
X164667349Y-90095576D01*
X164625028Y-90051212D01*
X164474876Y-89893811D01*
X164474873Y-89893808D01*
X164471801Y-89890588D01*
X164249320Y-89715199D01*
X164139073Y-89651163D01*
X164008193Y-89575141D01*
X164008187Y-89575138D01*
X164004346Y-89572907D01*
X163795180Y-89488186D01*
X163745894Y-89468223D01*
X163745891Y-89468222D01*
X163741768Y-89466552D01*
X163737455Y-89465481D01*
X163737450Y-89465479D01*
X163471144Y-89399328D01*
X163471139Y-89399327D01*
X163466823Y-89398255D01*
X163462395Y-89397801D01*
X163462393Y-89397801D01*
X163367552Y-89388084D01*
X163225210Y-89373500D01*
X163049830Y-89373500D01*
X162839407Y-89388399D01*
X162835052Y-89389337D01*
X162835049Y-89389337D01*
X162566800Y-89447089D01*
X162566798Y-89447089D01*
X162562453Y-89448025D01*
X162296663Y-89546080D01*
X162047340Y-89680607D01*
X161819460Y-89848922D01*
X161617570Y-90047666D01*
X161614869Y-90051206D01*
X161614863Y-90051212D01*
X161578237Y-90099204D01*
X161445696Y-90272874D01*
X161443521Y-90276758D01*
X161379155Y-90391693D01*
X161307270Y-90520053D01*
X161305662Y-90524211D01*
X161305659Y-90524216D01*
X161206659Y-90780115D01*
X161205052Y-90784270D01*
X161141082Y-91060253D01*
X161116637Y-91342497D01*
X114723896Y-91342497D01*
X114712040Y-91127073D01*
X114712039Y-91127066D01*
X114711795Y-91122630D01*
X114656526Y-90844774D01*
X114635279Y-90784270D01*
X114564136Y-90581684D01*
X114564135Y-90581681D01*
X114562658Y-90577476D01*
X114560605Y-90573523D01*
X114560602Y-90573517D01*
X114455991Y-90372133D01*
X114432064Y-90326072D01*
X114429481Y-90322457D01*
X114429477Y-90322451D01*
X114349858Y-90211037D01*
X114267349Y-90095576D01*
X114225028Y-90051212D01*
X114074876Y-89893811D01*
X114074873Y-89893808D01*
X114071801Y-89890588D01*
X113849320Y-89715199D01*
X113739073Y-89651163D01*
X113608193Y-89575141D01*
X113608187Y-89575138D01*
X113604346Y-89572907D01*
X113395180Y-89488186D01*
X113345894Y-89468223D01*
X113345891Y-89468222D01*
X113341768Y-89466552D01*
X113337455Y-89465481D01*
X113337450Y-89465479D01*
X113071144Y-89399328D01*
X113071139Y-89399327D01*
X113066823Y-89398255D01*
X113062395Y-89397801D01*
X113062393Y-89397801D01*
X112967552Y-89388084D01*
X112825210Y-89373500D01*
X112649830Y-89373500D01*
X112439407Y-89388399D01*
X112435052Y-89389337D01*
X112435049Y-89389337D01*
X112166800Y-89447089D01*
X112166798Y-89447089D01*
X112162453Y-89448025D01*
X111896663Y-89546080D01*
X111647340Y-89680607D01*
X111419460Y-89848922D01*
X111217570Y-90047666D01*
X111214869Y-90051206D01*
X111214863Y-90051212D01*
X111178237Y-90099204D01*
X111045696Y-90272874D01*
X111043521Y-90276758D01*
X110979155Y-90391693D01*
X110907270Y-90520053D01*
X110905662Y-90524211D01*
X110905659Y-90524216D01*
X110806659Y-90780115D01*
X110805052Y-90784270D01*
X110741082Y-91060253D01*
X110716637Y-91342497D01*
X88376000Y-91342497D01*
X88376000Y-82446972D01*
X88396002Y-82378851D01*
X88449658Y-82332358D01*
X88519932Y-82322254D01*
X88535672Y-82325555D01*
X88663668Y-82361051D01*
X88713871Y-82374974D01*
X88719008Y-82375523D01*
X88911957Y-82396144D01*
X88911965Y-82396144D01*
X88915292Y-82396500D01*
X89058554Y-82396500D01*
X89061127Y-82396288D01*
X89061138Y-82396288D01*
X89236760Y-82381849D01*
X89236766Y-82381848D01*
X89241911Y-82381425D01*
X89481217Y-82321316D01*
X89707493Y-82222928D01*
X89914661Y-82088905D01*
X89922893Y-82081415D01*
X90035857Y-81978625D01*
X90097158Y-81922846D01*
X90100357Y-81918795D01*
X90100361Y-81918791D01*
X90202035Y-81790049D01*
X93241194Y-81790049D01*
X93241418Y-81794715D01*
X93241418Y-81794720D01*
X93243315Y-81834214D01*
X93253677Y-82049930D01*
X93304435Y-82305112D01*
X93392355Y-82549989D01*
X93515504Y-82779180D01*
X93518299Y-82782923D01*
X93518301Y-82782926D01*
X93668385Y-82983913D01*
X93668390Y-82983919D01*
X93671177Y-82987651D01*
X93674486Y-82990931D01*
X93674491Y-82990937D01*
X93682055Y-82998435D01*
X93789343Y-83104790D01*
X93800081Y-83115435D01*
X93834377Y-83177598D01*
X93829622Y-83248435D01*
X93783285Y-83308383D01*
X93711899Y-83357998D01*
X93690626Y-83372783D01*
X93532783Y-83530626D01*
X93529582Y-83535232D01*
X93529580Y-83535234D01*
X93415322Y-83699629D01*
X93405386Y-83713925D01*
X93312463Y-83916888D01*
X93256949Y-84133099D01*
X93251733Y-84197233D01*
X93245708Y-84271311D01*
X93245500Y-84273863D01*
X93245501Y-85398136D01*
X93256949Y-85538901D01*
X93258283Y-85544097D01*
X93258284Y-85544102D01*
X93277633Y-85619460D01*
X93312463Y-85755112D01*
X93314799Y-85760215D01*
X93314800Y-85760217D01*
X93321364Y-85774553D01*
X93405386Y-85958075D01*
X93408586Y-85962679D01*
X93408587Y-85962681D01*
X93448263Y-86019766D01*
X93532783Y-86141374D01*
X93690626Y-86299217D01*
X93695232Y-86302418D01*
X93695234Y-86302420D01*
X93857885Y-86415466D01*
X93873925Y-86426614D01*
X93975982Y-86473339D01*
X94071783Y-86517200D01*
X94071785Y-86517201D01*
X94076888Y-86519537D01*
X94293099Y-86575051D01*
X94357233Y-86580267D01*
X94431312Y-86586293D01*
X94431324Y-86586293D01*
X94433863Y-86586500D01*
X94995780Y-86586500D01*
X95558136Y-86586499D01*
X95698901Y-86575051D01*
X95704097Y-86573717D01*
X95704102Y-86573716D01*
X95909671Y-86520934D01*
X95915112Y-86519537D01*
X95920215Y-86517201D01*
X95920217Y-86517200D01*
X96016018Y-86473339D01*
X96118075Y-86426614D01*
X96134115Y-86415466D01*
X96296766Y-86302420D01*
X96296768Y-86302418D01*
X96301374Y-86299217D01*
X96459217Y-86141374D01*
X96543738Y-86019766D01*
X96583413Y-85962681D01*
X96583414Y-85962679D01*
X96586614Y-85958075D01*
X96670636Y-85774553D01*
X96677200Y-85760217D01*
X96677201Y-85760215D01*
X96679537Y-85755112D01*
X96735051Y-85538901D01*
X96743330Y-85437113D01*
X96746293Y-85400688D01*
X96746293Y-85400676D01*
X96746500Y-85398137D01*
X96746499Y-84273864D01*
X96735051Y-84133099D01*
X96679537Y-83916888D01*
X96586614Y-83713925D01*
X96576678Y-83699629D01*
X96462420Y-83535234D01*
X96462418Y-83535232D01*
X96459217Y-83530626D01*
X96301374Y-83372783D01*
X96280102Y-83357998D01*
X96210204Y-83309418D01*
X96165682Y-83254116D01*
X96158127Y-83183522D01*
X96189936Y-83120050D01*
X96200702Y-83109786D01*
X96208152Y-83103479D01*
X96226382Y-83088046D01*
X96397931Y-82892431D01*
X96411941Y-82870651D01*
X96536155Y-82677538D01*
X96538683Y-82673608D01*
X96645544Y-82436385D01*
X96658072Y-82391963D01*
X96714898Y-82190476D01*
X96714899Y-82190473D01*
X96716168Y-82185972D01*
X96728516Y-82088905D01*
X96734270Y-82043677D01*
X96762709Y-81978625D01*
X96821803Y-81939275D01*
X96892790Y-81938121D01*
X96946314Y-81968484D01*
X96956926Y-81978625D01*
X97048468Y-82066104D01*
X97052740Y-82069018D01*
X97052741Y-82069019D01*
X97080785Y-82088149D01*
X97252300Y-82205149D01*
X97322542Y-82237754D01*
X97471409Y-82306856D01*
X97471413Y-82306857D01*
X97476104Y-82309035D01*
X97713871Y-82374974D01*
X97719008Y-82375523D01*
X97911957Y-82396144D01*
X97911965Y-82396144D01*
X97915292Y-82396500D01*
X98058554Y-82396500D01*
X98061127Y-82396288D01*
X98061138Y-82396288D01*
X98236760Y-82381849D01*
X98236766Y-82381848D01*
X98241911Y-82381425D01*
X98481217Y-82321316D01*
X98707493Y-82222928D01*
X98914661Y-82088905D01*
X98922893Y-82081415D01*
X99073687Y-81944203D01*
X99137533Y-81913151D01*
X99208031Y-81921547D01*
X99240265Y-81942824D01*
X99240709Y-81942276D01*
X99244731Y-81945533D01*
X99248468Y-81949104D01*
X99252740Y-81952018D01*
X99252741Y-81952019D01*
X99276878Y-81968484D01*
X99452300Y-82088149D01*
X99564202Y-82140092D01*
X99671409Y-82189856D01*
X99671413Y-82189857D01*
X99676104Y-82192035D01*
X99913871Y-82257974D01*
X99919008Y-82258523D01*
X100111957Y-82279144D01*
X100111965Y-82279144D01*
X100115292Y-82279500D01*
X100258554Y-82279500D01*
X100261127Y-82279288D01*
X100261138Y-82279288D01*
X100436760Y-82264849D01*
X100436766Y-82264848D01*
X100441911Y-82264425D01*
X100681217Y-82204316D01*
X100907493Y-82105928D01*
X101114661Y-81971905D01*
X101118488Y-81968423D01*
X101244053Y-81854168D01*
X101307899Y-81823116D01*
X101378397Y-81831512D01*
X101433165Y-81876689D01*
X101453592Y-81931151D01*
X101453677Y-81932930D01*
X101454589Y-81937513D01*
X101454589Y-81937516D01*
X101480262Y-82066585D01*
X101504435Y-82188112D01*
X101592355Y-82432989D01*
X101715504Y-82662180D01*
X101718299Y-82665923D01*
X101718301Y-82665926D01*
X101868385Y-82866913D01*
X101868390Y-82866919D01*
X101871177Y-82870651D01*
X101874486Y-82873931D01*
X101874491Y-82873937D01*
X102052637Y-83050535D01*
X102055954Y-83053823D01*
X102059716Y-83056581D01*
X102059719Y-83056584D01*
X102139413Y-83115018D01*
X102182521Y-83171429D01*
X102188288Y-83242191D01*
X102154882Y-83304838D01*
X102133993Y-83322002D01*
X102127375Y-83326341D01*
X102078930Y-83369580D01*
X101957325Y-83478117D01*
X101933265Y-83499591D01*
X101766895Y-83699629D01*
X101631920Y-83922061D01*
X101630111Y-83926375D01*
X101630110Y-83926377D01*
X101541180Y-84138452D01*
X101531305Y-84162001D01*
X101467261Y-84414177D01*
X101441194Y-84673049D01*
X101453677Y-84932930D01*
X101504435Y-85188112D01*
X101592355Y-85432989D01*
X101715504Y-85662180D01*
X101718299Y-85665923D01*
X101718301Y-85665926D01*
X101868385Y-85866913D01*
X101868390Y-85866919D01*
X101871177Y-85870651D01*
X101874486Y-85873931D01*
X101874491Y-85873937D01*
X102052637Y-86050535D01*
X102055954Y-86053823D01*
X102059716Y-86056581D01*
X102059719Y-86056584D01*
X102175694Y-86141620D01*
X102265775Y-86207670D01*
X102269910Y-86209846D01*
X102269914Y-86209848D01*
X102395774Y-86276066D01*
X102496033Y-86328815D01*
X102620077Y-86372133D01*
X102712121Y-86404276D01*
X102741667Y-86414594D01*
X102746260Y-86415466D01*
X102992693Y-86462253D01*
X102992696Y-86462253D01*
X102997282Y-86463124D01*
X103127272Y-86468231D01*
X103252595Y-86473156D01*
X103252601Y-86473156D01*
X103257263Y-86473339D01*
X103358489Y-86462253D01*
X103511245Y-86445524D01*
X103511250Y-86445523D01*
X103515898Y-86445014D01*
X103520422Y-86443823D01*
X103762982Y-86379962D01*
X103762984Y-86379961D01*
X103767505Y-86378771D01*
X103771802Y-86376925D01*
X104002263Y-86277911D01*
X104002265Y-86277910D01*
X104006557Y-86276066D01*
X104134180Y-86197091D01*
X104223820Y-86141620D01*
X104223822Y-86141618D01*
X104227803Y-86139155D01*
X104310817Y-86068879D01*
X104422809Y-85974071D01*
X104422811Y-85974069D01*
X104426382Y-85971046D01*
X104597931Y-85775431D01*
X104598805Y-85774072D01*
X104655128Y-85732187D01*
X104725960Y-85727346D01*
X104788164Y-85761568D01*
X104799745Y-85774992D01*
X104868385Y-85866913D01*
X104868390Y-85866919D01*
X104871177Y-85870651D01*
X104874486Y-85873931D01*
X104874491Y-85873937D01*
X105052637Y-86050535D01*
X105055954Y-86053823D01*
X105059716Y-86056581D01*
X105059719Y-86056584D01*
X105175694Y-86141620D01*
X105265775Y-86207670D01*
X105269910Y-86209846D01*
X105269914Y-86209848D01*
X105395774Y-86276066D01*
X105496033Y-86328815D01*
X105620077Y-86372133D01*
X105712121Y-86404276D01*
X105741667Y-86414594D01*
X105746260Y-86415466D01*
X105992693Y-86462253D01*
X105992696Y-86462253D01*
X105997282Y-86463124D01*
X106127272Y-86468231D01*
X106252595Y-86473156D01*
X106252601Y-86473156D01*
X106257263Y-86473339D01*
X106358489Y-86462253D01*
X106511245Y-86445524D01*
X106511250Y-86445523D01*
X106515898Y-86445014D01*
X106520422Y-86443823D01*
X106762982Y-86379962D01*
X106762984Y-86379961D01*
X106767505Y-86378771D01*
X106771802Y-86376925D01*
X107002263Y-86277911D01*
X107002265Y-86277910D01*
X107006557Y-86276066D01*
X107134180Y-86197091D01*
X107223820Y-86141620D01*
X107223822Y-86141618D01*
X107227803Y-86139155D01*
X107310817Y-86068879D01*
X107422809Y-85974071D01*
X107422811Y-85974069D01*
X107426382Y-85971046D01*
X107597931Y-85775431D01*
X107598805Y-85774072D01*
X107655128Y-85732187D01*
X107725960Y-85727346D01*
X107788164Y-85761568D01*
X107799745Y-85774992D01*
X107868385Y-85866913D01*
X107868390Y-85866919D01*
X107871177Y-85870651D01*
X107874486Y-85873931D01*
X107874491Y-85873937D01*
X108052637Y-86050535D01*
X108055954Y-86053823D01*
X108059716Y-86056581D01*
X108059719Y-86056584D01*
X108175694Y-86141620D01*
X108265775Y-86207670D01*
X108269910Y-86209846D01*
X108269914Y-86209848D01*
X108395774Y-86276066D01*
X108496033Y-86328815D01*
X108620077Y-86372133D01*
X108712121Y-86404276D01*
X108741667Y-86414594D01*
X108746260Y-86415466D01*
X108992693Y-86462253D01*
X108992696Y-86462253D01*
X108997282Y-86463124D01*
X109127272Y-86468231D01*
X109252595Y-86473156D01*
X109252601Y-86473156D01*
X109257263Y-86473339D01*
X109358489Y-86462253D01*
X109511245Y-86445524D01*
X109511250Y-86445523D01*
X109515898Y-86445014D01*
X109520422Y-86443823D01*
X109762982Y-86379962D01*
X109762984Y-86379961D01*
X109767505Y-86378771D01*
X109771802Y-86376925D01*
X110002263Y-86277911D01*
X110002265Y-86277910D01*
X110006557Y-86276066D01*
X110134180Y-86197091D01*
X110223820Y-86141620D01*
X110223822Y-86141618D01*
X110227803Y-86139155D01*
X110310817Y-86068879D01*
X110422809Y-85974071D01*
X110422811Y-85974069D01*
X110426382Y-85971046D01*
X110470399Y-85920854D01*
X110530352Y-85882826D01*
X110601348Y-85883248D01*
X110660845Y-85921986D01*
X110668592Y-85932015D01*
X110732783Y-86024374D01*
X110890626Y-86182217D01*
X110895232Y-86185418D01*
X110895234Y-86185420D01*
X111063574Y-86302420D01*
X111073925Y-86309614D01*
X111200981Y-86367784D01*
X111271783Y-86400200D01*
X111271785Y-86400201D01*
X111276888Y-86402537D01*
X111493099Y-86458051D01*
X111555471Y-86463124D01*
X111631312Y-86469293D01*
X111631324Y-86469293D01*
X111633863Y-86469500D01*
X112125836Y-86469500D01*
X112193957Y-86489502D01*
X112214931Y-86506405D01*
X114602510Y-88893984D01*
X114613377Y-88906374D01*
X114626790Y-88923854D01*
X114663361Y-88957131D01*
X114686676Y-88978346D01*
X114690971Y-88982445D01*
X114706807Y-88998281D01*
X114708960Y-89000081D01*
X114708962Y-89000083D01*
X114726702Y-89014916D01*
X114730669Y-89018376D01*
X114791893Y-89074086D01*
X114806948Y-89083530D01*
X114820806Y-89093599D01*
X114834438Y-89104997D01*
X114839314Y-89107778D01*
X114906337Y-89146008D01*
X114910843Y-89148704D01*
X114980990Y-89192707D01*
X114997479Y-89199335D01*
X115012909Y-89206795D01*
X115028337Y-89215595D01*
X115077433Y-89232981D01*
X115106366Y-89243227D01*
X115111302Y-89245092D01*
X115188105Y-89275966D01*
X115193599Y-89277104D01*
X115193603Y-89277105D01*
X115205497Y-89279568D01*
X115222008Y-89284178D01*
X115233467Y-89288236D01*
X115233470Y-89288237D01*
X115238757Y-89290109D01*
X115279000Y-89296699D01*
X115320464Y-89303489D01*
X115325654Y-89304451D01*
X115402169Y-89320297D01*
X115402173Y-89320297D01*
X115406690Y-89321233D01*
X115411299Y-89321499D01*
X115411301Y-89321499D01*
X115434253Y-89322822D01*
X115447366Y-89324270D01*
X115459046Y-89326183D01*
X115464664Y-89326095D01*
X115464667Y-89326095D01*
X115565168Y-89324516D01*
X115567147Y-89324500D01*
X121908388Y-89324500D01*
X121976509Y-89344502D01*
X122013152Y-89380497D01*
X122083036Y-89485086D01*
X122085750Y-89488180D01*
X122085754Y-89488186D01*
X122160053Y-89572907D01*
X122282953Y-89713047D01*
X122286042Y-89715756D01*
X122507814Y-89910246D01*
X122507820Y-89910250D01*
X122510914Y-89912964D01*
X122514340Y-89915253D01*
X122514345Y-89915257D01*
X122704755Y-90042485D01*
X122763018Y-90081415D01*
X122766717Y-90083239D01*
X122766722Y-90083242D01*
X122906366Y-90152106D01*
X123034954Y-90215519D01*
X123038859Y-90216844D01*
X123038860Y-90216845D01*
X123318154Y-90311652D01*
X123318158Y-90311653D01*
X123322067Y-90312980D01*
X123326111Y-90313784D01*
X123326117Y-90313786D01*
X123615406Y-90371330D01*
X123615412Y-90371331D01*
X123619445Y-90372133D01*
X123623550Y-90372402D01*
X123623557Y-90372403D01*
X123917880Y-90391693D01*
X123922000Y-90391963D01*
X123926120Y-90391693D01*
X124220443Y-90372403D01*
X124220450Y-90372402D01*
X124224555Y-90372133D01*
X124228588Y-90371331D01*
X124228594Y-90371330D01*
X124517883Y-90313786D01*
X124517889Y-90313784D01*
X124521933Y-90312980D01*
X124525842Y-90311653D01*
X124525846Y-90311652D01*
X124805140Y-90216845D01*
X124805141Y-90216844D01*
X124809046Y-90215519D01*
X124937634Y-90152106D01*
X125077278Y-90083242D01*
X125077283Y-90083239D01*
X125080982Y-90081415D01*
X125139245Y-90042485D01*
X125329655Y-89915257D01*
X125329660Y-89915253D01*
X125333086Y-89912964D01*
X125336180Y-89910250D01*
X125336186Y-89910246D01*
X125557958Y-89715756D01*
X125561047Y-89713047D01*
X125683947Y-89572907D01*
X125758246Y-89488186D01*
X125758250Y-89488180D01*
X125760964Y-89485086D01*
X125817235Y-89400870D01*
X125871711Y-89355343D01*
X125942155Y-89346494D01*
X126006199Y-89377135D01*
X126026764Y-89400869D01*
X126083036Y-89485086D01*
X126085750Y-89488180D01*
X126085754Y-89488186D01*
X126160053Y-89572907D01*
X126282953Y-89713047D01*
X126286042Y-89715756D01*
X126507814Y-89910246D01*
X126507820Y-89910250D01*
X126510914Y-89912964D01*
X126514340Y-89915253D01*
X126514345Y-89915257D01*
X126704755Y-90042485D01*
X126763018Y-90081415D01*
X126766717Y-90083239D01*
X126766722Y-90083242D01*
X126906366Y-90152106D01*
X127034954Y-90215519D01*
X127038859Y-90216844D01*
X127038860Y-90216845D01*
X127318154Y-90311652D01*
X127318158Y-90311653D01*
X127322067Y-90312980D01*
X127326111Y-90313784D01*
X127326117Y-90313786D01*
X127615406Y-90371330D01*
X127615412Y-90371331D01*
X127619445Y-90372133D01*
X127623550Y-90372402D01*
X127623557Y-90372403D01*
X127917880Y-90391693D01*
X127922000Y-90391963D01*
X127926120Y-90391693D01*
X128220443Y-90372403D01*
X128220450Y-90372402D01*
X128224555Y-90372133D01*
X128228588Y-90371331D01*
X128228594Y-90371330D01*
X128517883Y-90313786D01*
X128517889Y-90313784D01*
X128521933Y-90312980D01*
X128525842Y-90311653D01*
X128525846Y-90311652D01*
X128805140Y-90216845D01*
X128805141Y-90216844D01*
X128809046Y-90215519D01*
X128937634Y-90152106D01*
X129077278Y-90083242D01*
X129077283Y-90083239D01*
X129080982Y-90081415D01*
X129139245Y-90042485D01*
X129329655Y-89915257D01*
X129329660Y-89915253D01*
X129333086Y-89912964D01*
X129336180Y-89910250D01*
X129336186Y-89910246D01*
X129557958Y-89715756D01*
X129561047Y-89713047D01*
X129683947Y-89572907D01*
X129758246Y-89488186D01*
X129758250Y-89488180D01*
X129760964Y-89485086D01*
X129817235Y-89400870D01*
X129871711Y-89355343D01*
X129942155Y-89346494D01*
X130006199Y-89377135D01*
X130026764Y-89400869D01*
X130083036Y-89485086D01*
X130085750Y-89488180D01*
X130085754Y-89488186D01*
X130160053Y-89572907D01*
X130282953Y-89713047D01*
X130286042Y-89715756D01*
X130507814Y-89910246D01*
X130507820Y-89910250D01*
X130510914Y-89912964D01*
X130514340Y-89915253D01*
X130514345Y-89915257D01*
X130704755Y-90042485D01*
X130763018Y-90081415D01*
X130766717Y-90083239D01*
X130766722Y-90083242D01*
X130906366Y-90152106D01*
X131034954Y-90215519D01*
X131038859Y-90216844D01*
X131038860Y-90216845D01*
X131318154Y-90311652D01*
X131318158Y-90311653D01*
X131322067Y-90312980D01*
X131326111Y-90313784D01*
X131326117Y-90313786D01*
X131615406Y-90371330D01*
X131615412Y-90371331D01*
X131619445Y-90372133D01*
X131623550Y-90372402D01*
X131623557Y-90372403D01*
X131917880Y-90391693D01*
X131922000Y-90391963D01*
X131926120Y-90391693D01*
X132220443Y-90372403D01*
X132220450Y-90372402D01*
X132224555Y-90372133D01*
X132228588Y-90371331D01*
X132228594Y-90371330D01*
X132517883Y-90313786D01*
X132517889Y-90313784D01*
X132521933Y-90312980D01*
X132525842Y-90311653D01*
X132525846Y-90311652D01*
X132805140Y-90216845D01*
X132805141Y-90216844D01*
X132809046Y-90215519D01*
X132937634Y-90152106D01*
X133077278Y-90083242D01*
X133077283Y-90083239D01*
X133080982Y-90081415D01*
X133139245Y-90042485D01*
X133329655Y-89915257D01*
X133329660Y-89915253D01*
X133333086Y-89912964D01*
X133336180Y-89910250D01*
X133336186Y-89910246D01*
X133557958Y-89715756D01*
X133561047Y-89713047D01*
X133683947Y-89572907D01*
X133758246Y-89488186D01*
X133758250Y-89488180D01*
X133760964Y-89485086D01*
X133817235Y-89400870D01*
X133871711Y-89355343D01*
X133942155Y-89346494D01*
X134006199Y-89377135D01*
X134026764Y-89400869D01*
X134083036Y-89485086D01*
X134085750Y-89488180D01*
X134085754Y-89488186D01*
X134160053Y-89572907D01*
X134282953Y-89713047D01*
X134286042Y-89715756D01*
X134507814Y-89910246D01*
X134507820Y-89910250D01*
X134510914Y-89912964D01*
X134514340Y-89915253D01*
X134514345Y-89915257D01*
X134704755Y-90042485D01*
X134763018Y-90081415D01*
X134766717Y-90083239D01*
X134766722Y-90083242D01*
X134906366Y-90152106D01*
X135034954Y-90215519D01*
X135038859Y-90216844D01*
X135038860Y-90216845D01*
X135318154Y-90311652D01*
X135318158Y-90311653D01*
X135322067Y-90312980D01*
X135326111Y-90313784D01*
X135326117Y-90313786D01*
X135615406Y-90371330D01*
X135615412Y-90371331D01*
X135619445Y-90372133D01*
X135623550Y-90372402D01*
X135623557Y-90372403D01*
X135917880Y-90391693D01*
X135922000Y-90391963D01*
X135926120Y-90391693D01*
X136220443Y-90372403D01*
X136220450Y-90372402D01*
X136224555Y-90372133D01*
X136228588Y-90371331D01*
X136228594Y-90371330D01*
X136517883Y-90313786D01*
X136517889Y-90313784D01*
X136521933Y-90312980D01*
X136525842Y-90311653D01*
X136525846Y-90311652D01*
X136805140Y-90216845D01*
X136805141Y-90216844D01*
X136809046Y-90215519D01*
X136937634Y-90152106D01*
X137077278Y-90083242D01*
X137077283Y-90083239D01*
X137080982Y-90081415D01*
X137139245Y-90042485D01*
X137329655Y-89915257D01*
X137329660Y-89915253D01*
X137333086Y-89912964D01*
X137336180Y-89910250D01*
X137336186Y-89910246D01*
X137557958Y-89715756D01*
X137561047Y-89713047D01*
X137683947Y-89572907D01*
X137758246Y-89488186D01*
X137758250Y-89488180D01*
X137760964Y-89485086D01*
X137817235Y-89400870D01*
X137871711Y-89355343D01*
X137942155Y-89346494D01*
X138006199Y-89377135D01*
X138026764Y-89400869D01*
X138083036Y-89485086D01*
X138085750Y-89488180D01*
X138085754Y-89488186D01*
X138160053Y-89572907D01*
X138282953Y-89713047D01*
X138286042Y-89715756D01*
X138507814Y-89910246D01*
X138507820Y-89910250D01*
X138510914Y-89912964D01*
X138514340Y-89915253D01*
X138514345Y-89915257D01*
X138704755Y-90042485D01*
X138763018Y-90081415D01*
X138766717Y-90083239D01*
X138766722Y-90083242D01*
X138906366Y-90152106D01*
X139034954Y-90215519D01*
X139038859Y-90216844D01*
X139038860Y-90216845D01*
X139318154Y-90311652D01*
X139318158Y-90311653D01*
X139322067Y-90312980D01*
X139326111Y-90313784D01*
X139326117Y-90313786D01*
X139615406Y-90371330D01*
X139615412Y-90371331D01*
X139619445Y-90372133D01*
X139623550Y-90372402D01*
X139623557Y-90372403D01*
X139917880Y-90391693D01*
X139922000Y-90391963D01*
X139926120Y-90391693D01*
X140220443Y-90372403D01*
X140220450Y-90372402D01*
X140224555Y-90372133D01*
X140228588Y-90371331D01*
X140228594Y-90371330D01*
X140517883Y-90313786D01*
X140517889Y-90313784D01*
X140521933Y-90312980D01*
X140525842Y-90311653D01*
X140525846Y-90311652D01*
X140805140Y-90216845D01*
X140805141Y-90216844D01*
X140809046Y-90215519D01*
X140937634Y-90152106D01*
X141077278Y-90083242D01*
X141077283Y-90083239D01*
X141080982Y-90081415D01*
X141139245Y-90042485D01*
X141329655Y-89915257D01*
X141329660Y-89915253D01*
X141333086Y-89912964D01*
X141336180Y-89910250D01*
X141336186Y-89910246D01*
X141557958Y-89715756D01*
X141561047Y-89713047D01*
X141683947Y-89572907D01*
X141758246Y-89488186D01*
X141758250Y-89488180D01*
X141760964Y-89485086D01*
X141817235Y-89400870D01*
X141871711Y-89355343D01*
X141942155Y-89346494D01*
X142006199Y-89377135D01*
X142026764Y-89400869D01*
X142083036Y-89485086D01*
X142085750Y-89488180D01*
X142085754Y-89488186D01*
X142160053Y-89572907D01*
X142282953Y-89713047D01*
X142286042Y-89715756D01*
X142507814Y-89910246D01*
X142507820Y-89910250D01*
X142510914Y-89912964D01*
X142514340Y-89915253D01*
X142514345Y-89915257D01*
X142704755Y-90042485D01*
X142763018Y-90081415D01*
X142766717Y-90083239D01*
X142766722Y-90083242D01*
X142906366Y-90152106D01*
X143034954Y-90215519D01*
X143038859Y-90216844D01*
X143038860Y-90216845D01*
X143318154Y-90311652D01*
X143318158Y-90311653D01*
X143322067Y-90312980D01*
X143326111Y-90313784D01*
X143326117Y-90313786D01*
X143615406Y-90371330D01*
X143615412Y-90371331D01*
X143619445Y-90372133D01*
X143623550Y-90372402D01*
X143623557Y-90372403D01*
X143917880Y-90391693D01*
X143922000Y-90391963D01*
X143926120Y-90391693D01*
X144220443Y-90372403D01*
X144220450Y-90372402D01*
X144224555Y-90372133D01*
X144228588Y-90371331D01*
X144228594Y-90371330D01*
X144517883Y-90313786D01*
X144517889Y-90313784D01*
X144521933Y-90312980D01*
X144525842Y-90311653D01*
X144525846Y-90311652D01*
X144805140Y-90216845D01*
X144805141Y-90216844D01*
X144809046Y-90215519D01*
X144937634Y-90152106D01*
X145077278Y-90083242D01*
X145077283Y-90083239D01*
X145080982Y-90081415D01*
X145139245Y-90042485D01*
X145329655Y-89915257D01*
X145329660Y-89915253D01*
X145333086Y-89912964D01*
X145336180Y-89910250D01*
X145336186Y-89910246D01*
X145557958Y-89715756D01*
X145561047Y-89713047D01*
X145683947Y-89572907D01*
X145758246Y-89488186D01*
X145758250Y-89488180D01*
X145760964Y-89485086D01*
X145817235Y-89400870D01*
X145871711Y-89355343D01*
X145942155Y-89346494D01*
X146006199Y-89377135D01*
X146026764Y-89400869D01*
X146083036Y-89485086D01*
X146085750Y-89488180D01*
X146085754Y-89488186D01*
X146160053Y-89572907D01*
X146282953Y-89713047D01*
X146286042Y-89715756D01*
X146507814Y-89910246D01*
X146507820Y-89910250D01*
X146510914Y-89912964D01*
X146514340Y-89915253D01*
X146514345Y-89915257D01*
X146704755Y-90042485D01*
X146763018Y-90081415D01*
X146766717Y-90083239D01*
X146766722Y-90083242D01*
X146906366Y-90152106D01*
X147034954Y-90215519D01*
X147038859Y-90216844D01*
X147038860Y-90216845D01*
X147318154Y-90311652D01*
X147318158Y-90311653D01*
X147322067Y-90312980D01*
X147326111Y-90313784D01*
X147326117Y-90313786D01*
X147615406Y-90371330D01*
X147615412Y-90371331D01*
X147619445Y-90372133D01*
X147623550Y-90372402D01*
X147623557Y-90372403D01*
X147917880Y-90391693D01*
X147922000Y-90391963D01*
X147926120Y-90391693D01*
X148220443Y-90372403D01*
X148220450Y-90372402D01*
X148224555Y-90372133D01*
X148228588Y-90371331D01*
X148228594Y-90371330D01*
X148517883Y-90313786D01*
X148517889Y-90313784D01*
X148521933Y-90312980D01*
X148525842Y-90311653D01*
X148525846Y-90311652D01*
X148805140Y-90216845D01*
X148805141Y-90216844D01*
X148809046Y-90215519D01*
X148937634Y-90152106D01*
X149077278Y-90083242D01*
X149077283Y-90083239D01*
X149080982Y-90081415D01*
X149139245Y-90042485D01*
X149329655Y-89915257D01*
X149329660Y-89915253D01*
X149333086Y-89912964D01*
X149336180Y-89910250D01*
X149336186Y-89910246D01*
X149557958Y-89715756D01*
X149561047Y-89713047D01*
X149683947Y-89572907D01*
X149758246Y-89488186D01*
X149758250Y-89488180D01*
X149760964Y-89485086D01*
X149817235Y-89400870D01*
X149871711Y-89355343D01*
X149942155Y-89346494D01*
X150006199Y-89377135D01*
X150026764Y-89400869D01*
X150083036Y-89485086D01*
X150085750Y-89488180D01*
X150085754Y-89488186D01*
X150160053Y-89572907D01*
X150282953Y-89713047D01*
X150286042Y-89715756D01*
X150507814Y-89910246D01*
X150507820Y-89910250D01*
X150510914Y-89912964D01*
X150514340Y-89915253D01*
X150514345Y-89915257D01*
X150704755Y-90042485D01*
X150763018Y-90081415D01*
X150766717Y-90083239D01*
X150766722Y-90083242D01*
X150906366Y-90152106D01*
X151034954Y-90215519D01*
X151038859Y-90216844D01*
X151038860Y-90216845D01*
X151318154Y-90311652D01*
X151318158Y-90311653D01*
X151322067Y-90312980D01*
X151326111Y-90313784D01*
X151326117Y-90313786D01*
X151615406Y-90371330D01*
X151615412Y-90371331D01*
X151619445Y-90372133D01*
X151623550Y-90372402D01*
X151623557Y-90372403D01*
X151917880Y-90391693D01*
X151922000Y-90391963D01*
X151926120Y-90391693D01*
X152220443Y-90372403D01*
X152220450Y-90372402D01*
X152224555Y-90372133D01*
X152228588Y-90371331D01*
X152228594Y-90371330D01*
X152517883Y-90313786D01*
X152517889Y-90313784D01*
X152521933Y-90312980D01*
X152525842Y-90311653D01*
X152525846Y-90311652D01*
X152805140Y-90216845D01*
X152805141Y-90216844D01*
X152809046Y-90215519D01*
X152937634Y-90152106D01*
X153077278Y-90083242D01*
X153077283Y-90083239D01*
X153080982Y-90081415D01*
X153139245Y-90042485D01*
X153329655Y-89915257D01*
X153329660Y-89915253D01*
X153333086Y-89912964D01*
X153336180Y-89910250D01*
X153336186Y-89910246D01*
X153557958Y-89715756D01*
X153561047Y-89713047D01*
X153683947Y-89572907D01*
X153758246Y-89488186D01*
X153758250Y-89488180D01*
X153760964Y-89485086D01*
X153772232Y-89468223D01*
X153927120Y-89236416D01*
X153927121Y-89236414D01*
X153929415Y-89232981D01*
X153971661Y-89147315D01*
X154061693Y-88964750D01*
X154061696Y-88964742D01*
X154063519Y-88961046D01*
X154064848Y-88957131D01*
X154159652Y-88677846D01*
X154159653Y-88677842D01*
X154160980Y-88673933D01*
X154220133Y-88376555D01*
X154239963Y-88074000D01*
X154220133Y-87771445D01*
X154160980Y-87474067D01*
X154063519Y-87186954D01*
X154061696Y-87183258D01*
X154061693Y-87183250D01*
X153931241Y-86918722D01*
X153929415Y-86915019D01*
X153853568Y-86801506D01*
X153763257Y-86666345D01*
X153763253Y-86666340D01*
X153760964Y-86662914D01*
X153758250Y-86659820D01*
X153758246Y-86659814D01*
X153563756Y-86438042D01*
X153561047Y-86434953D01*
X153520780Y-86399640D01*
X153336186Y-86237754D01*
X153336180Y-86237750D01*
X153333086Y-86235036D01*
X153329660Y-86232747D01*
X153329655Y-86232743D01*
X153084415Y-86068879D01*
X153080982Y-86066585D01*
X153077283Y-86064761D01*
X153077278Y-86064758D01*
X152880114Y-85967528D01*
X152809046Y-85932481D01*
X152805140Y-85931155D01*
X152525846Y-85836348D01*
X152525842Y-85836347D01*
X152521933Y-85835020D01*
X152517889Y-85834216D01*
X152517883Y-85834214D01*
X152228594Y-85776670D01*
X152228588Y-85776669D01*
X152224555Y-85775867D01*
X152220450Y-85775598D01*
X152220443Y-85775597D01*
X151926120Y-85756307D01*
X151922000Y-85756037D01*
X151917880Y-85756307D01*
X151917879Y-85756307D01*
X151802573Y-85763864D01*
X151733290Y-85748360D01*
X151683388Y-85697860D01*
X151668710Y-85628397D01*
X151693916Y-85562026D01*
X151699602Y-85555056D01*
X151758239Y-85488195D01*
X151758250Y-85488181D01*
X151760964Y-85485086D01*
X151817236Y-85400870D01*
X151927120Y-85236416D01*
X151927121Y-85236414D01*
X151929415Y-85232981D01*
X152023850Y-85041487D01*
X152061693Y-84964750D01*
X152061696Y-84964742D01*
X152063519Y-84961046D01*
X152085943Y-84894988D01*
X152159652Y-84677846D01*
X152159653Y-84677842D01*
X152160980Y-84673933D01*
X152211723Y-84418835D01*
X152219330Y-84380594D01*
X152219331Y-84380588D01*
X152220133Y-84376555D01*
X152226697Y-84276418D01*
X152239693Y-84078120D01*
X152239963Y-84074000D01*
X152230005Y-83922061D01*
X152220403Y-83775557D01*
X152220402Y-83775550D01*
X152220133Y-83771445D01*
X152208692Y-83713925D01*
X152161786Y-83478117D01*
X152161784Y-83478111D01*
X152160980Y-83474067D01*
X152142028Y-83418234D01*
X152064848Y-83190869D01*
X152064848Y-83190868D01*
X152063519Y-83186954D01*
X152061696Y-83183258D01*
X152061693Y-83183250D01*
X151931241Y-82918722D01*
X151929415Y-82915019D01*
X151901965Y-82873937D01*
X151763257Y-82666345D01*
X151763253Y-82666340D01*
X151760964Y-82662914D01*
X151758250Y-82659820D01*
X151758246Y-82659814D01*
X151563756Y-82438042D01*
X151561047Y-82434953D01*
X151516794Y-82396144D01*
X151336186Y-82237754D01*
X151336180Y-82237750D01*
X151333086Y-82235036D01*
X151329660Y-82232747D01*
X151329655Y-82232743D01*
X151105911Y-82083242D01*
X151080982Y-82066585D01*
X151077283Y-82064761D01*
X151077278Y-82064758D01*
X150842754Y-81949104D01*
X150809046Y-81932481D01*
X150805140Y-81931155D01*
X150525846Y-81836348D01*
X150525842Y-81836347D01*
X150521933Y-81835020D01*
X150517889Y-81834216D01*
X150517883Y-81834214D01*
X150228594Y-81776670D01*
X150228588Y-81776669D01*
X150224555Y-81775867D01*
X150220450Y-81775598D01*
X150220443Y-81775597D01*
X149926120Y-81756307D01*
X149922000Y-81756037D01*
X149917880Y-81756307D01*
X149917879Y-81756307D01*
X149802573Y-81763864D01*
X149733290Y-81748360D01*
X149683388Y-81697860D01*
X149668710Y-81628397D01*
X149693916Y-81562026D01*
X149699602Y-81555056D01*
X149758239Y-81488195D01*
X149758250Y-81488181D01*
X149760964Y-81485086D01*
X149817236Y-81400870D01*
X149927120Y-81236416D01*
X149927121Y-81236414D01*
X149929415Y-81232981D01*
X150023211Y-81042783D01*
X150061693Y-80964750D01*
X150061696Y-80964742D01*
X150063519Y-80961046D01*
X150148971Y-80709312D01*
X150159652Y-80677846D01*
X150159653Y-80677842D01*
X150160980Y-80673933D01*
X150161786Y-80669883D01*
X150219330Y-80380594D01*
X150219331Y-80380588D01*
X150220133Y-80376555D01*
X150221350Y-80357998D01*
X150239693Y-80078120D01*
X150239963Y-80074000D01*
X150235906Y-80012094D01*
X150220403Y-79775557D01*
X150220402Y-79775550D01*
X150220133Y-79771445D01*
X150218225Y-79761849D01*
X150161786Y-79478117D01*
X150161784Y-79478111D01*
X150160980Y-79474067D01*
X150159405Y-79469425D01*
X150064848Y-79190869D01*
X150064848Y-79190868D01*
X150063519Y-79186954D01*
X150061696Y-79183258D01*
X150061693Y-79183250D01*
X149931241Y-78918722D01*
X149929415Y-78915019D01*
X149853568Y-78801506D01*
X149763257Y-78666345D01*
X149763253Y-78666340D01*
X149760964Y-78662914D01*
X149758250Y-78659820D01*
X149758246Y-78659814D01*
X149563756Y-78438042D01*
X149561047Y-78434953D01*
X149557958Y-78432244D01*
X149336186Y-78237754D01*
X149336180Y-78237750D01*
X149333086Y-78235036D01*
X149329660Y-78232747D01*
X149329655Y-78232743D01*
X149139245Y-78105515D01*
X149080982Y-78066585D01*
X149077283Y-78064761D01*
X149077278Y-78064758D01*
X148937634Y-77995894D01*
X148809046Y-77932481D01*
X148805131Y-77931152D01*
X148525846Y-77836348D01*
X148525842Y-77836347D01*
X148521933Y-77835020D01*
X148517889Y-77834216D01*
X148517883Y-77834214D01*
X148228594Y-77776670D01*
X148228588Y-77776669D01*
X148224555Y-77775867D01*
X148220450Y-77775598D01*
X148220443Y-77775597D01*
X147926120Y-77756307D01*
X147922000Y-77756037D01*
X147917880Y-77756307D01*
X147623557Y-77775597D01*
X147623550Y-77775598D01*
X147619445Y-77775867D01*
X147615412Y-77776669D01*
X147615406Y-77776670D01*
X147326117Y-77834214D01*
X147326111Y-77834216D01*
X147322067Y-77835020D01*
X147318158Y-77836347D01*
X147318154Y-77836348D01*
X147038869Y-77931152D01*
X147034954Y-77932481D01*
X147031258Y-77934304D01*
X147031250Y-77934307D01*
X146811051Y-78042898D01*
X146763019Y-78066585D01*
X146759586Y-78068879D01*
X146759584Y-78068880D01*
X146514345Y-78232743D01*
X146514340Y-78232747D01*
X146510914Y-78235036D01*
X146507820Y-78237750D01*
X146507814Y-78237754D01*
X146286042Y-78432244D01*
X146282953Y-78434953D01*
X146280244Y-78438042D01*
X146085754Y-78659814D01*
X146085750Y-78659820D01*
X146083036Y-78662914D01*
X146026765Y-78747130D01*
X145972289Y-78792657D01*
X145901845Y-78801506D01*
X145837801Y-78770865D01*
X145817235Y-78747130D01*
X145760964Y-78662914D01*
X145758250Y-78659820D01*
X145758246Y-78659814D01*
X145563756Y-78438042D01*
X145561047Y-78434953D01*
X145557958Y-78432244D01*
X145336186Y-78237754D01*
X145336180Y-78237750D01*
X145333086Y-78235036D01*
X145329660Y-78232747D01*
X145329655Y-78232743D01*
X145139245Y-78105515D01*
X145080982Y-78066585D01*
X145077283Y-78064761D01*
X145077278Y-78064758D01*
X144937634Y-77995894D01*
X144809046Y-77932481D01*
X144805131Y-77931152D01*
X144525846Y-77836348D01*
X144525842Y-77836347D01*
X144521933Y-77835020D01*
X144517889Y-77834216D01*
X144517883Y-77834214D01*
X144228594Y-77776670D01*
X144228588Y-77776669D01*
X144224555Y-77775867D01*
X144220450Y-77775598D01*
X144220443Y-77775597D01*
X143926120Y-77756307D01*
X143922000Y-77756037D01*
X143917880Y-77756307D01*
X143623557Y-77775597D01*
X143623550Y-77775598D01*
X143619445Y-77775867D01*
X143615412Y-77776669D01*
X143615406Y-77776670D01*
X143326117Y-77834214D01*
X143326111Y-77834216D01*
X143322067Y-77835020D01*
X143318158Y-77836347D01*
X143318154Y-77836348D01*
X143038869Y-77931152D01*
X143034954Y-77932481D01*
X143031258Y-77934304D01*
X143031250Y-77934307D01*
X142811051Y-78042898D01*
X142763019Y-78066585D01*
X142759586Y-78068879D01*
X142759584Y-78068880D01*
X142514345Y-78232743D01*
X142514340Y-78232747D01*
X142510914Y-78235036D01*
X142507820Y-78237750D01*
X142507814Y-78237754D01*
X142286042Y-78432244D01*
X142282953Y-78434953D01*
X142280244Y-78438042D01*
X142085754Y-78659814D01*
X142085750Y-78659820D01*
X142083036Y-78662914D01*
X142026765Y-78747130D01*
X141972289Y-78792657D01*
X141901845Y-78801506D01*
X141837801Y-78770865D01*
X141817235Y-78747130D01*
X141760964Y-78662914D01*
X141758250Y-78659820D01*
X141758246Y-78659814D01*
X141563756Y-78438042D01*
X141561047Y-78434953D01*
X141557958Y-78432244D01*
X141336186Y-78237754D01*
X141336180Y-78237750D01*
X141333086Y-78235036D01*
X141329660Y-78232747D01*
X141329655Y-78232743D01*
X141139245Y-78105515D01*
X141080982Y-78066585D01*
X141077283Y-78064761D01*
X141077278Y-78064758D01*
X140937634Y-77995894D01*
X140809046Y-77932481D01*
X140805131Y-77931152D01*
X140525846Y-77836348D01*
X140525842Y-77836347D01*
X140521933Y-77835020D01*
X140517889Y-77834216D01*
X140517883Y-77834214D01*
X140228594Y-77776670D01*
X140228588Y-77776669D01*
X140224555Y-77775867D01*
X140220450Y-77775598D01*
X140220443Y-77775597D01*
X139926120Y-77756307D01*
X139922000Y-77756037D01*
X139917880Y-77756307D01*
X139623557Y-77775597D01*
X139623550Y-77775598D01*
X139619445Y-77775867D01*
X139615412Y-77776669D01*
X139615406Y-77776670D01*
X139326117Y-77834214D01*
X139326111Y-77834216D01*
X139322067Y-77835020D01*
X139318158Y-77836347D01*
X139318154Y-77836348D01*
X139038869Y-77931152D01*
X139034954Y-77932481D01*
X139031258Y-77934304D01*
X139031250Y-77934307D01*
X138811051Y-78042898D01*
X138763019Y-78066585D01*
X138759586Y-78068879D01*
X138759584Y-78068880D01*
X138514345Y-78232743D01*
X138514340Y-78232747D01*
X138510914Y-78235036D01*
X138507820Y-78237750D01*
X138507814Y-78237754D01*
X138286042Y-78432244D01*
X138282953Y-78434953D01*
X138280244Y-78438042D01*
X138085754Y-78659814D01*
X138085750Y-78659820D01*
X138083036Y-78662914D01*
X138026765Y-78747130D01*
X137972289Y-78792657D01*
X137901845Y-78801506D01*
X137837801Y-78770865D01*
X137817235Y-78747130D01*
X137760964Y-78662914D01*
X137758250Y-78659820D01*
X137758246Y-78659814D01*
X137563756Y-78438042D01*
X137561047Y-78434953D01*
X137557958Y-78432244D01*
X137336186Y-78237754D01*
X137336180Y-78237750D01*
X137333086Y-78235036D01*
X137329660Y-78232747D01*
X137329655Y-78232743D01*
X137139245Y-78105515D01*
X137080982Y-78066585D01*
X137077283Y-78064761D01*
X137077278Y-78064758D01*
X136937634Y-77995894D01*
X136809046Y-77932481D01*
X136805131Y-77931152D01*
X136525846Y-77836348D01*
X136525842Y-77836347D01*
X136521933Y-77835020D01*
X136517889Y-77834216D01*
X136517883Y-77834214D01*
X136228594Y-77776670D01*
X136228588Y-77776669D01*
X136224555Y-77775867D01*
X136220450Y-77775598D01*
X136220443Y-77775597D01*
X135926120Y-77756307D01*
X135922000Y-77756037D01*
X135917880Y-77756307D01*
X135623557Y-77775597D01*
X135623550Y-77775598D01*
X135619445Y-77775867D01*
X135615412Y-77776669D01*
X135615406Y-77776670D01*
X135326117Y-77834214D01*
X135326111Y-77834216D01*
X135322067Y-77835020D01*
X135318158Y-77836347D01*
X135318154Y-77836348D01*
X135038869Y-77931152D01*
X135034954Y-77932481D01*
X135031258Y-77934304D01*
X135031250Y-77934307D01*
X134811051Y-78042898D01*
X134763019Y-78066585D01*
X134759586Y-78068879D01*
X134759584Y-78068880D01*
X134514345Y-78232743D01*
X134514340Y-78232747D01*
X134510914Y-78235036D01*
X134507820Y-78237750D01*
X134507814Y-78237754D01*
X134286042Y-78432244D01*
X134282953Y-78434953D01*
X134280244Y-78438042D01*
X134085754Y-78659814D01*
X134085750Y-78659820D01*
X134083036Y-78662914D01*
X134026765Y-78747130D01*
X133972289Y-78792657D01*
X133901845Y-78801506D01*
X133837801Y-78770865D01*
X133817235Y-78747130D01*
X133760964Y-78662914D01*
X133758250Y-78659820D01*
X133758246Y-78659814D01*
X133563756Y-78438042D01*
X133561047Y-78434953D01*
X133557958Y-78432244D01*
X133336186Y-78237754D01*
X133336180Y-78237750D01*
X133333086Y-78235036D01*
X133329660Y-78232747D01*
X133329655Y-78232743D01*
X133139245Y-78105515D01*
X133080982Y-78066585D01*
X133077283Y-78064761D01*
X133077278Y-78064758D01*
X132937634Y-77995894D01*
X132809046Y-77932481D01*
X132805131Y-77931152D01*
X132525846Y-77836348D01*
X132525842Y-77836347D01*
X132521933Y-77835020D01*
X132517889Y-77834216D01*
X132517883Y-77834214D01*
X132228594Y-77776670D01*
X132228588Y-77776669D01*
X132224555Y-77775867D01*
X132220450Y-77775598D01*
X132220443Y-77775597D01*
X131926120Y-77756307D01*
X131922000Y-77756037D01*
X131917880Y-77756307D01*
X131623557Y-77775597D01*
X131623550Y-77775598D01*
X131619445Y-77775867D01*
X131615412Y-77776669D01*
X131615406Y-77776670D01*
X131326117Y-77834214D01*
X131326111Y-77834216D01*
X131322067Y-77835020D01*
X131318158Y-77836347D01*
X131318154Y-77836348D01*
X131038869Y-77931152D01*
X131034954Y-77932481D01*
X131031258Y-77934304D01*
X131031250Y-77934307D01*
X130811051Y-78042898D01*
X130763019Y-78066585D01*
X130759586Y-78068879D01*
X130759584Y-78068880D01*
X130514345Y-78232743D01*
X130514340Y-78232747D01*
X130510914Y-78235036D01*
X130507820Y-78237750D01*
X130507814Y-78237754D01*
X130286042Y-78432244D01*
X130282953Y-78434953D01*
X130280244Y-78438042D01*
X130085754Y-78659814D01*
X130085750Y-78659820D01*
X130083036Y-78662914D01*
X130026765Y-78747130D01*
X129972289Y-78792657D01*
X129901845Y-78801506D01*
X129837801Y-78770865D01*
X129817235Y-78747130D01*
X129760964Y-78662914D01*
X129758250Y-78659820D01*
X129758246Y-78659814D01*
X129563756Y-78438042D01*
X129561047Y-78434953D01*
X129557958Y-78432244D01*
X129336186Y-78237754D01*
X129336180Y-78237750D01*
X129333086Y-78235036D01*
X129329660Y-78232747D01*
X129329655Y-78232743D01*
X129139245Y-78105515D01*
X129080982Y-78066585D01*
X129077283Y-78064761D01*
X129077278Y-78064758D01*
X128937634Y-77995894D01*
X128809046Y-77932481D01*
X128805131Y-77931152D01*
X128525846Y-77836348D01*
X128525842Y-77836347D01*
X128521933Y-77835020D01*
X128517889Y-77834216D01*
X128517883Y-77834214D01*
X128228594Y-77776670D01*
X128228588Y-77776669D01*
X128224555Y-77775867D01*
X128220450Y-77775598D01*
X128220443Y-77775597D01*
X127926120Y-77756307D01*
X127922000Y-77756037D01*
X127917880Y-77756307D01*
X127623557Y-77775597D01*
X127623550Y-77775598D01*
X127619445Y-77775867D01*
X127615412Y-77776669D01*
X127615406Y-77776670D01*
X127326117Y-77834214D01*
X127326111Y-77834216D01*
X127322067Y-77835020D01*
X127318158Y-77836347D01*
X127318154Y-77836348D01*
X127038869Y-77931152D01*
X127034954Y-77932481D01*
X127031258Y-77934304D01*
X127031250Y-77934307D01*
X126811051Y-78042898D01*
X126763019Y-78066585D01*
X126759586Y-78068879D01*
X126759584Y-78068880D01*
X126514345Y-78232743D01*
X126514340Y-78232747D01*
X126510914Y-78235036D01*
X126507820Y-78237750D01*
X126507814Y-78237754D01*
X126286042Y-78432244D01*
X126282953Y-78434953D01*
X126280244Y-78438042D01*
X126085754Y-78659814D01*
X126085750Y-78659820D01*
X126083036Y-78662914D01*
X126026765Y-78747130D01*
X125972289Y-78792657D01*
X125901845Y-78801506D01*
X125837801Y-78770865D01*
X125817235Y-78747130D01*
X125760964Y-78662914D01*
X125758250Y-78659820D01*
X125758246Y-78659814D01*
X125563756Y-78438042D01*
X125561047Y-78434953D01*
X125557958Y-78432244D01*
X125336186Y-78237754D01*
X125336180Y-78237750D01*
X125333086Y-78235036D01*
X125329660Y-78232747D01*
X125329655Y-78232743D01*
X125139245Y-78105515D01*
X125080982Y-78066585D01*
X125077283Y-78064761D01*
X125077278Y-78064758D01*
X124937634Y-77995894D01*
X124809046Y-77932481D01*
X124805131Y-77931152D01*
X124525846Y-77836348D01*
X124525842Y-77836347D01*
X124521933Y-77835020D01*
X124517889Y-77834216D01*
X124517883Y-77834214D01*
X124228594Y-77776670D01*
X124228588Y-77776669D01*
X124224555Y-77775867D01*
X124220450Y-77775598D01*
X124220443Y-77775597D01*
X123926120Y-77756307D01*
X123922000Y-77756037D01*
X123917880Y-77756307D01*
X123623557Y-77775597D01*
X123623550Y-77775598D01*
X123619445Y-77775867D01*
X123615412Y-77776669D01*
X123615406Y-77776670D01*
X123326117Y-77834214D01*
X123326111Y-77834216D01*
X123322067Y-77835020D01*
X123318158Y-77836347D01*
X123318154Y-77836348D01*
X123038869Y-77931152D01*
X123034954Y-77932481D01*
X123031258Y-77934304D01*
X123031250Y-77934307D01*
X122811051Y-78042898D01*
X122763019Y-78066585D01*
X122759586Y-78068879D01*
X122759584Y-78068880D01*
X122514345Y-78232743D01*
X122514340Y-78232747D01*
X122510914Y-78235036D01*
X122507820Y-78237750D01*
X122507814Y-78237754D01*
X122286042Y-78432244D01*
X122282953Y-78434953D01*
X122280244Y-78438042D01*
X122085754Y-78659814D01*
X122085750Y-78659820D01*
X122083036Y-78662914D01*
X122080747Y-78666340D01*
X122080743Y-78666345D01*
X121990432Y-78801506D01*
X121914585Y-78915019D01*
X121912759Y-78918722D01*
X121782307Y-79183250D01*
X121782304Y-79183258D01*
X121780481Y-79186954D01*
X121779152Y-79190868D01*
X121779152Y-79190869D01*
X121684596Y-79469425D01*
X121683020Y-79474067D01*
X121682216Y-79478111D01*
X121682214Y-79478117D01*
X121625776Y-79761849D01*
X121623867Y-79771445D01*
X121623598Y-79775550D01*
X121623597Y-79775557D01*
X121608094Y-80012094D01*
X121604037Y-80074000D01*
X121604307Y-80078120D01*
X121622651Y-80357998D01*
X121623867Y-80376555D01*
X121624669Y-80380588D01*
X121624670Y-80380594D01*
X121682214Y-80669883D01*
X121683020Y-80673933D01*
X121684347Y-80677842D01*
X121684348Y-80677846D01*
X121695029Y-80709312D01*
X121780481Y-80961046D01*
X121782304Y-80964742D01*
X121782307Y-80964750D01*
X121820789Y-81042783D01*
X121914585Y-81232981D01*
X121916879Y-81236414D01*
X121916880Y-81236416D01*
X122026765Y-81400870D01*
X122083036Y-81485086D01*
X122085750Y-81488180D01*
X122085754Y-81488186D01*
X122262560Y-81689793D01*
X122282953Y-81713047D01*
X122286042Y-81715756D01*
X122507814Y-81910246D01*
X122507820Y-81910250D01*
X122510914Y-81912964D01*
X122514340Y-81915253D01*
X122514345Y-81915257D01*
X122609182Y-81978625D01*
X122763018Y-82081415D01*
X122766717Y-82083239D01*
X122766722Y-82083242D01*
X122906366Y-82152106D01*
X123034954Y-82215519D01*
X123038859Y-82216844D01*
X123038860Y-82216845D01*
X123318154Y-82311652D01*
X123318158Y-82311653D01*
X123322067Y-82312980D01*
X123326111Y-82313784D01*
X123326117Y-82313786D01*
X123615406Y-82371330D01*
X123615412Y-82371331D01*
X123619445Y-82372133D01*
X123623550Y-82372402D01*
X123623557Y-82372403D01*
X123917880Y-82391693D01*
X123922000Y-82391963D01*
X123926120Y-82391693D01*
X123926121Y-82391693D01*
X124041427Y-82384136D01*
X124110710Y-82399640D01*
X124160612Y-82450140D01*
X124175290Y-82519603D01*
X124150084Y-82585974D01*
X124144398Y-82592944D01*
X124085761Y-82659805D01*
X124085750Y-82659819D01*
X124083036Y-82662914D01*
X124080747Y-82666340D01*
X124080743Y-82666345D01*
X123942035Y-82873937D01*
X123914585Y-82915019D01*
X123912759Y-82918722D01*
X123782307Y-83183250D01*
X123782304Y-83183258D01*
X123780481Y-83186954D01*
X123779152Y-83190868D01*
X123779152Y-83190869D01*
X123701973Y-83418234D01*
X123683020Y-83474067D01*
X123682216Y-83478111D01*
X123682214Y-83478117D01*
X123635309Y-83713925D01*
X123623867Y-83771445D01*
X123623598Y-83775550D01*
X123623597Y-83775557D01*
X123613995Y-83922061D01*
X123604037Y-84074000D01*
X123604307Y-84078120D01*
X123617304Y-84276418D01*
X123623867Y-84376555D01*
X123624669Y-84380588D01*
X123624670Y-84380594D01*
X123632277Y-84418835D01*
X123683020Y-84673933D01*
X123684346Y-84677838D01*
X123684348Y-84677847D01*
X123758057Y-84894988D01*
X123761013Y-84965923D01*
X123725149Y-85027196D01*
X123661853Y-85059352D01*
X123638744Y-85061489D01*
X117359153Y-85061489D01*
X117291032Y-85041487D01*
X117270058Y-85024584D01*
X114684356Y-82438882D01*
X114650330Y-82376570D01*
X114655395Y-82305755D01*
X114697942Y-82248919D01*
X114764462Y-82224108D01*
X114807123Y-82228370D01*
X114913871Y-82257974D01*
X114919008Y-82258523D01*
X115111957Y-82279144D01*
X115111965Y-82279144D01*
X115115292Y-82279500D01*
X115258554Y-82279500D01*
X115261127Y-82279288D01*
X115261138Y-82279288D01*
X115436760Y-82264849D01*
X115436766Y-82264848D01*
X115441911Y-82264425D01*
X115681217Y-82204316D01*
X115907493Y-82105928D01*
X116114661Y-81971905D01*
X116136516Y-81952019D01*
X116173033Y-81918791D01*
X116297158Y-81805846D01*
X116300357Y-81801795D01*
X116300361Y-81801791D01*
X116446881Y-81616264D01*
X116446884Y-81616259D01*
X116450082Y-81612210D01*
X116481633Y-81555056D01*
X116566830Y-81400722D01*
X116566832Y-81400718D01*
X116569327Y-81396198D01*
X116586929Y-81346494D01*
X116649965Y-81168485D01*
X116649966Y-81168481D01*
X116651691Y-81163610D01*
X116674120Y-81037694D01*
X116694055Y-80925783D01*
X116694056Y-80925777D01*
X116694961Y-80920694D01*
X116697573Y-80706850D01*
X116697912Y-80679142D01*
X116697912Y-80679140D01*
X116697975Y-80673972D01*
X116660653Y-80430070D01*
X116583997Y-80195540D01*
X116488501Y-80012094D01*
X116472454Y-79981268D01*
X116472453Y-79981267D01*
X116470065Y-79976679D01*
X116465819Y-79971023D01*
X116325022Y-79783499D01*
X116325020Y-79783496D01*
X116321917Y-79779364D01*
X116143532Y-79608896D01*
X116115495Y-79589770D01*
X115958924Y-79482965D01*
X115939700Y-79469851D01*
X115779524Y-79395500D01*
X115720591Y-79368144D01*
X115720587Y-79368143D01*
X115715896Y-79365965D01*
X115478129Y-79300026D01*
X115472992Y-79299477D01*
X115280043Y-79278856D01*
X115280035Y-79278856D01*
X115276708Y-79278500D01*
X115133446Y-79278500D01*
X115130873Y-79278712D01*
X115130862Y-79278712D01*
X114955240Y-79293151D01*
X114955234Y-79293152D01*
X114950089Y-79293575D01*
X114710783Y-79353684D01*
X114484507Y-79452072D01*
X114277339Y-79586095D01*
X114273514Y-79589575D01*
X114273512Y-79589577D01*
X114252281Y-79608896D01*
X114094842Y-79752154D01*
X114091643Y-79756205D01*
X114091639Y-79756209D01*
X113945119Y-79941736D01*
X113945116Y-79941741D01*
X113941918Y-79945790D01*
X113939425Y-79950306D01*
X113939423Y-79950309D01*
X113840729Y-80129094D01*
X113822673Y-80161802D01*
X113820949Y-80166671D01*
X113820947Y-80166675D01*
X113745194Y-80380594D01*
X113740309Y-80394390D01*
X113739402Y-80399483D01*
X113739401Y-80399486D01*
X113723291Y-80489929D01*
X113691653Y-80553487D01*
X113630676Y-80589850D01*
X113559719Y-80587473D01*
X113500294Y-80545839D01*
X113497390Y-80542155D01*
X113490223Y-80533064D01*
X113300714Y-80354792D01*
X113086937Y-80206489D01*
X113082747Y-80204423D01*
X113082744Y-80204421D01*
X112857775Y-80093479D01*
X112857772Y-80093478D01*
X112853587Y-80091414D01*
X112840648Y-80087272D01*
X112610237Y-80013517D01*
X112610239Y-80013517D01*
X112605792Y-80012094D01*
X112465569Y-79989257D01*
X112353606Y-79971023D01*
X112353605Y-79971023D01*
X112348994Y-79970272D01*
X112218915Y-79968569D01*
X112093512Y-79966927D01*
X112093509Y-79966927D01*
X112088835Y-79966866D01*
X111831030Y-80001952D01*
X111581243Y-80074758D01*
X111576990Y-80076718D01*
X111576989Y-80076719D01*
X111540634Y-80093479D01*
X111344961Y-80183686D01*
X111341056Y-80186246D01*
X111341051Y-80186249D01*
X111131288Y-80323775D01*
X111131283Y-80323779D01*
X111127375Y-80326341D01*
X110933265Y-80499591D01*
X110791763Y-80669729D01*
X110732827Y-80709312D01*
X110661845Y-80710749D01*
X110601354Y-80673581D01*
X110595940Y-80667165D01*
X110534989Y-80589850D01*
X110490223Y-80533064D01*
X110300714Y-80354792D01*
X110086937Y-80206489D01*
X110082747Y-80204423D01*
X110082744Y-80204421D01*
X109857775Y-80093479D01*
X109857772Y-80093478D01*
X109853587Y-80091414D01*
X109840648Y-80087272D01*
X109610237Y-80013517D01*
X109610239Y-80013517D01*
X109605792Y-80012094D01*
X109465569Y-79989257D01*
X109353606Y-79971023D01*
X109353605Y-79971023D01*
X109348994Y-79970272D01*
X109218915Y-79968569D01*
X109093512Y-79966927D01*
X109093509Y-79966927D01*
X109088835Y-79966866D01*
X108831030Y-80001952D01*
X108581243Y-80074758D01*
X108576990Y-80076718D01*
X108576989Y-80076719D01*
X108540634Y-80093479D01*
X108344961Y-80183686D01*
X108341056Y-80186246D01*
X108341051Y-80186249D01*
X108131288Y-80323775D01*
X108131283Y-80323779D01*
X108127375Y-80326341D01*
X107933265Y-80499591D01*
X107791763Y-80669729D01*
X107732827Y-80709312D01*
X107661845Y-80710749D01*
X107601354Y-80673581D01*
X107595940Y-80667165D01*
X107534989Y-80589850D01*
X107490223Y-80533064D01*
X107300714Y-80354792D01*
X107086937Y-80206489D01*
X107082747Y-80204423D01*
X107082744Y-80204421D01*
X106857775Y-80093479D01*
X106857772Y-80093478D01*
X106853587Y-80091414D01*
X106840648Y-80087272D01*
X106610237Y-80013517D01*
X106610239Y-80013517D01*
X106605792Y-80012094D01*
X106465569Y-79989257D01*
X106353606Y-79971023D01*
X106353605Y-79971023D01*
X106348994Y-79970272D01*
X106218915Y-79968569D01*
X106093512Y-79966927D01*
X106093509Y-79966927D01*
X106088835Y-79966866D01*
X105831030Y-80001952D01*
X105581243Y-80074758D01*
X105576990Y-80076718D01*
X105576989Y-80076719D01*
X105540634Y-80093479D01*
X105344961Y-80183686D01*
X105341056Y-80186246D01*
X105341051Y-80186249D01*
X105131288Y-80323775D01*
X105131283Y-80323779D01*
X105127375Y-80326341D01*
X104933265Y-80499591D01*
X104791763Y-80669729D01*
X104732827Y-80709312D01*
X104661845Y-80710749D01*
X104601354Y-80673581D01*
X104595940Y-80667165D01*
X104534989Y-80589850D01*
X104490223Y-80533064D01*
X104300714Y-80354792D01*
X104086937Y-80206489D01*
X104082747Y-80204423D01*
X104082744Y-80204421D01*
X103857775Y-80093479D01*
X103857772Y-80093478D01*
X103853587Y-80091414D01*
X103840648Y-80087272D01*
X103610237Y-80013517D01*
X103610239Y-80013517D01*
X103605792Y-80012094D01*
X103465569Y-79989257D01*
X103353606Y-79971023D01*
X103353605Y-79971023D01*
X103348994Y-79970272D01*
X103218915Y-79968569D01*
X103093512Y-79966927D01*
X103093509Y-79966927D01*
X103088835Y-79966866D01*
X102831030Y-80001952D01*
X102581243Y-80074758D01*
X102576990Y-80076718D01*
X102576989Y-80076719D01*
X102540634Y-80093479D01*
X102344961Y-80183686D01*
X102341056Y-80186246D01*
X102341051Y-80186249D01*
X102131288Y-80323775D01*
X102131283Y-80323779D01*
X102127375Y-80326341D01*
X101933265Y-80499591D01*
X101908088Y-80529864D01*
X101891067Y-80550329D01*
X101832130Y-80589913D01*
X101761148Y-80591350D01*
X101700657Y-80554182D01*
X101669643Y-80488819D01*
X101666629Y-80469124D01*
X101660653Y-80430070D01*
X101583997Y-80195540D01*
X101488501Y-80012094D01*
X101472454Y-79981268D01*
X101472453Y-79981267D01*
X101470065Y-79976679D01*
X101465819Y-79971023D01*
X101325022Y-79783499D01*
X101325020Y-79783496D01*
X101321917Y-79779364D01*
X101143532Y-79608896D01*
X101115495Y-79589770D01*
X100958924Y-79482965D01*
X100939700Y-79469851D01*
X100779524Y-79395500D01*
X100720591Y-79368144D01*
X100720587Y-79368143D01*
X100715896Y-79365965D01*
X100478129Y-79300026D01*
X100472992Y-79299477D01*
X100280043Y-79278856D01*
X100280035Y-79278856D01*
X100276708Y-79278500D01*
X100133446Y-79278500D01*
X100130873Y-79278712D01*
X100130862Y-79278712D01*
X99955240Y-79293151D01*
X99955234Y-79293152D01*
X99950089Y-79293575D01*
X99710783Y-79353684D01*
X99484507Y-79452072D01*
X99277339Y-79586095D01*
X99273514Y-79589575D01*
X99273512Y-79589577D01*
X99118313Y-79730797D01*
X99054467Y-79761849D01*
X98983969Y-79753453D01*
X98951735Y-79732176D01*
X98951291Y-79732724D01*
X98947269Y-79729467D01*
X98943532Y-79725896D01*
X98915212Y-79706577D01*
X98743979Y-79589770D01*
X98743980Y-79589770D01*
X98739700Y-79586851D01*
X98615695Y-79529290D01*
X98520591Y-79485144D01*
X98520587Y-79485143D01*
X98515896Y-79482965D01*
X98278129Y-79417026D01*
X98272992Y-79416477D01*
X98080043Y-79395856D01*
X98080035Y-79395856D01*
X98076708Y-79395500D01*
X97933446Y-79395500D01*
X97930873Y-79395712D01*
X97930862Y-79395712D01*
X97755240Y-79410151D01*
X97755234Y-79410152D01*
X97750089Y-79410575D01*
X97510783Y-79470684D01*
X97284507Y-79569072D01*
X97077339Y-79703095D01*
X97073514Y-79706575D01*
X97073512Y-79706577D01*
X97052281Y-79725896D01*
X96894842Y-79869154D01*
X96891643Y-79873205D01*
X96891639Y-79873209D01*
X96745119Y-80058736D01*
X96745116Y-80058741D01*
X96741918Y-80062790D01*
X96739425Y-80067306D01*
X96739423Y-80067309D01*
X96661121Y-80209154D01*
X96622673Y-80278802D01*
X96620949Y-80283671D01*
X96620947Y-80283675D01*
X96542035Y-80506515D01*
X96540309Y-80511390D01*
X96539402Y-80516483D01*
X96539401Y-80516486D01*
X96523291Y-80606929D01*
X96491653Y-80670487D01*
X96430676Y-80706850D01*
X96359719Y-80704473D01*
X96300294Y-80662839D01*
X96300232Y-80662760D01*
X96290223Y-80650064D01*
X96100714Y-80471792D01*
X95928214Y-80352124D01*
X95890779Y-80326154D01*
X95890776Y-80326152D01*
X95886937Y-80323489D01*
X95882747Y-80321423D01*
X95882744Y-80321421D01*
X95657775Y-80210479D01*
X95657772Y-80210478D01*
X95653587Y-80208414D01*
X95647574Y-80206489D01*
X95523195Y-80166675D01*
X95405792Y-80129094D01*
X95265569Y-80106257D01*
X95153606Y-80088023D01*
X95153605Y-80088023D01*
X95148994Y-80087272D01*
X95018915Y-80085569D01*
X94893512Y-80083927D01*
X94893509Y-80083927D01*
X94888835Y-80083866D01*
X94631030Y-80118952D01*
X94381243Y-80191758D01*
X94376990Y-80193718D01*
X94376989Y-80193719D01*
X94343508Y-80209154D01*
X94144961Y-80300686D01*
X94141056Y-80303246D01*
X94141051Y-80303249D01*
X93931288Y-80440775D01*
X93931283Y-80440779D01*
X93927375Y-80443341D01*
X93733265Y-80616591D01*
X93566895Y-80816629D01*
X93431920Y-81039061D01*
X93430111Y-81043375D01*
X93430110Y-81043377D01*
X93350603Y-81232981D01*
X93331305Y-81279001D01*
X93267261Y-81531177D01*
X93241194Y-81790049D01*
X90202035Y-81790049D01*
X90246881Y-81733264D01*
X90246884Y-81733259D01*
X90250082Y-81729210D01*
X90257509Y-81715756D01*
X90366830Y-81517722D01*
X90366832Y-81517718D01*
X90369327Y-81513198D01*
X90378185Y-81488186D01*
X90449965Y-81285485D01*
X90449966Y-81285481D01*
X90451691Y-81280610D01*
X90452746Y-81274686D01*
X90494055Y-81042783D01*
X90494056Y-81042777D01*
X90494961Y-81037694D01*
X90497662Y-80816629D01*
X90497912Y-80796142D01*
X90497912Y-80796140D01*
X90497975Y-80790972D01*
X90460653Y-80547070D01*
X90383997Y-80312540D01*
X90288501Y-80129094D01*
X90272454Y-80098268D01*
X90272453Y-80098267D01*
X90270065Y-80093679D01*
X90265819Y-80088023D01*
X90125022Y-79900499D01*
X90125020Y-79900496D01*
X90121917Y-79896364D01*
X89995499Y-79775557D01*
X89947269Y-79729467D01*
X89947268Y-79729466D01*
X89943532Y-79725896D01*
X89915212Y-79706577D01*
X89743979Y-79589770D01*
X89743980Y-79589770D01*
X89739700Y-79586851D01*
X89615695Y-79529290D01*
X89520591Y-79485144D01*
X89520587Y-79485143D01*
X89515896Y-79482965D01*
X89278129Y-79417026D01*
X89272992Y-79416477D01*
X89080043Y-79395856D01*
X89080035Y-79395856D01*
X89076708Y-79395500D01*
X88933446Y-79395500D01*
X88930873Y-79395712D01*
X88930862Y-79395712D01*
X88755240Y-79410151D01*
X88755234Y-79410152D01*
X88750089Y-79410575D01*
X88593102Y-79450007D01*
X88532695Y-79465180D01*
X88461754Y-79462376D01*
X88403591Y-79421663D01*
X88376672Y-79355967D01*
X88376000Y-79342976D01*
X88376000Y-73242497D01*
X112216637Y-73242497D01*
X112216881Y-73246932D01*
X112216881Y-73246936D01*
X112220105Y-73305503D01*
X112232205Y-73525370D01*
X112287474Y-73803226D01*
X112288950Y-73807429D01*
X112310181Y-73867885D01*
X112381342Y-74070524D01*
X112383395Y-74074477D01*
X112383398Y-74074483D01*
X112457360Y-74216865D01*
X112511936Y-74321928D01*
X112514519Y-74325543D01*
X112514523Y-74325549D01*
X112547176Y-74371242D01*
X112676651Y-74552424D01*
X112679729Y-74555651D01*
X112679731Y-74555653D01*
X112722355Y-74600334D01*
X112872199Y-74757412D01*
X113094680Y-74932801D01*
X113204927Y-74996837D01*
X113335807Y-75072859D01*
X113335813Y-75072862D01*
X113339654Y-75075093D01*
X113602232Y-75181448D01*
X113606545Y-75182519D01*
X113606550Y-75182521D01*
X113872856Y-75248672D01*
X113872861Y-75248673D01*
X113877177Y-75249745D01*
X113881605Y-75250199D01*
X113881607Y-75250199D01*
X113957307Y-75257955D01*
X114118790Y-75274500D01*
X114294170Y-75274500D01*
X114504593Y-75259601D01*
X114508948Y-75258663D01*
X114508951Y-75258663D01*
X114777200Y-75200911D01*
X114777202Y-75200911D01*
X114781547Y-75199975D01*
X115047337Y-75101920D01*
X115296660Y-74967393D01*
X115524540Y-74799078D01*
X115726430Y-74600334D01*
X115729131Y-74596794D01*
X115729137Y-74596788D01*
X115895602Y-74378667D01*
X115895605Y-74378663D01*
X115898304Y-74375126D01*
X116036730Y-74127947D01*
X116058946Y-74070524D01*
X116137341Y-73867885D01*
X116137343Y-73867879D01*
X116138948Y-73863730D01*
X116202918Y-73587747D01*
X116227363Y-73305503D01*
X116224140Y-73246936D01*
X116223896Y-73242497D01*
X159616637Y-73242497D01*
X159616881Y-73246932D01*
X159616881Y-73246936D01*
X159620105Y-73305503D01*
X159632205Y-73525370D01*
X159687474Y-73803226D01*
X159688950Y-73807429D01*
X159710181Y-73867885D01*
X159781342Y-74070524D01*
X159783395Y-74074477D01*
X159783398Y-74074483D01*
X159857360Y-74216865D01*
X159911936Y-74321928D01*
X159914519Y-74325543D01*
X159914523Y-74325549D01*
X159947176Y-74371242D01*
X160076651Y-74552424D01*
X160079729Y-74555651D01*
X160079731Y-74555653D01*
X160122355Y-74600334D01*
X160272199Y-74757412D01*
X160494680Y-74932801D01*
X160604927Y-74996837D01*
X160735807Y-75072859D01*
X160735813Y-75072862D01*
X160739654Y-75075093D01*
X161002232Y-75181448D01*
X161006545Y-75182519D01*
X161006550Y-75182521D01*
X161272856Y-75248672D01*
X161272861Y-75248673D01*
X161277177Y-75249745D01*
X161281605Y-75250199D01*
X161281607Y-75250199D01*
X161357307Y-75257955D01*
X161518790Y-75274500D01*
X161694170Y-75274500D01*
X161904593Y-75259601D01*
X161908948Y-75258663D01*
X161908951Y-75258663D01*
X162177200Y-75200911D01*
X162177202Y-75200911D01*
X162181547Y-75199975D01*
X162447337Y-75101920D01*
X162696660Y-74967393D01*
X162924540Y-74799078D01*
X163126430Y-74600334D01*
X163129131Y-74596794D01*
X163129137Y-74596788D01*
X163295602Y-74378667D01*
X163295605Y-74378663D01*
X163298304Y-74375126D01*
X163436730Y-74127947D01*
X163458946Y-74070524D01*
X163537341Y-73867885D01*
X163537343Y-73867879D01*
X163538948Y-73863730D01*
X163602918Y-73587747D01*
X163627363Y-73305503D01*
X163624140Y-73246936D01*
X163612040Y-73027073D01*
X163612039Y-73027066D01*
X163611795Y-73022630D01*
X163556526Y-72744774D01*
X163535279Y-72684270D01*
X163464136Y-72481684D01*
X163464135Y-72481681D01*
X163462658Y-72477476D01*
X163460605Y-72473523D01*
X163460602Y-72473517D01*
X163334116Y-72230023D01*
X163332064Y-72226072D01*
X163329481Y-72222457D01*
X163329477Y-72222451D01*
X163249858Y-72111037D01*
X163167349Y-71995576D01*
X163125028Y-71951212D01*
X162974876Y-71793811D01*
X162974873Y-71793808D01*
X162971801Y-71790588D01*
X162749320Y-71615199D01*
X162639073Y-71551163D01*
X162508193Y-71475141D01*
X162508187Y-71475138D01*
X162504346Y-71472907D01*
X162241768Y-71366552D01*
X162237455Y-71365481D01*
X162237450Y-71365479D01*
X161971144Y-71299328D01*
X161971139Y-71299327D01*
X161966823Y-71298255D01*
X161962395Y-71297801D01*
X161962393Y-71297801D01*
X161867552Y-71288084D01*
X161725210Y-71273500D01*
X161549830Y-71273500D01*
X161339407Y-71288399D01*
X161335052Y-71289337D01*
X161335049Y-71289337D01*
X161066800Y-71347089D01*
X161066798Y-71347089D01*
X161062453Y-71348025D01*
X160796663Y-71446080D01*
X160547340Y-71580607D01*
X160319460Y-71748922D01*
X160117570Y-71947666D01*
X160114869Y-71951206D01*
X160114863Y-71951212D01*
X160078237Y-71999204D01*
X159945696Y-72172874D01*
X159807270Y-72420053D01*
X159805662Y-72424211D01*
X159805659Y-72424216D01*
X159706659Y-72680115D01*
X159705052Y-72684270D01*
X159641082Y-72960253D01*
X159616637Y-73242497D01*
X116223896Y-73242497D01*
X116212040Y-73027073D01*
X116212039Y-73027066D01*
X116211795Y-73022630D01*
X116156526Y-72744774D01*
X116135279Y-72684270D01*
X116064136Y-72481684D01*
X116064135Y-72481681D01*
X116062658Y-72477476D01*
X116060605Y-72473523D01*
X116060602Y-72473517D01*
X115934116Y-72230023D01*
X115932064Y-72226072D01*
X115929481Y-72222457D01*
X115929477Y-72222451D01*
X115849858Y-72111037D01*
X115767349Y-71995576D01*
X115725028Y-71951212D01*
X115574876Y-71793811D01*
X115574873Y-71793808D01*
X115571801Y-71790588D01*
X115349320Y-71615199D01*
X115239073Y-71551163D01*
X115108193Y-71475141D01*
X115108187Y-71475138D01*
X115104346Y-71472907D01*
X114841768Y-71366552D01*
X114837455Y-71365481D01*
X114837450Y-71365479D01*
X114571144Y-71299328D01*
X114571139Y-71299327D01*
X114566823Y-71298255D01*
X114562395Y-71297801D01*
X114562393Y-71297801D01*
X114467552Y-71288084D01*
X114325210Y-71273500D01*
X114149830Y-71273500D01*
X113939407Y-71288399D01*
X113935052Y-71289337D01*
X113935049Y-71289337D01*
X113666800Y-71347089D01*
X113666798Y-71347089D01*
X113662453Y-71348025D01*
X113396663Y-71446080D01*
X113147340Y-71580607D01*
X112919460Y-71748922D01*
X112717570Y-71947666D01*
X112714869Y-71951206D01*
X112714863Y-71951212D01*
X112678237Y-71999204D01*
X112545696Y-72172874D01*
X112407270Y-72420053D01*
X112405662Y-72424211D01*
X112405659Y-72424216D01*
X112306659Y-72680115D01*
X112305052Y-72684270D01*
X112241082Y-72960253D01*
X112216637Y-73242497D01*
X88376000Y-73242497D01*
X88376000Y-68436000D01*
X88396002Y-68367879D01*
X88449658Y-68321386D01*
X88502000Y-68310000D01*
X168038000Y-68310000D01*
X168106121Y-68330002D01*
G37*
%TD.AperFunction*%
%TD*%
M02*
