%TF.GenerationSoftware,KiCad,Pcbnew,(6.0.1)*%
%TF.CreationDate,2022-06-01T15:25:36+03:00*%
%TF.ProjectId,Input Connector,496e7075-7420-4436-9f6e-6e6563746f72,rev?*%
%TF.SameCoordinates,Original*%
%TF.FileFunction,Soldermask,Top*%
%TF.FilePolarity,Negative*%
%FSLAX46Y46*%
G04 Gerber Fmt 4.6, Leading zero omitted, Abs format (unit mm)*
G04 Created by KiCad (PCBNEW (6.0.1)) date 2022-06-01 15:25:36*
%MOMM*%
%LPD*%
G01*
G04 APERTURE LIST*
G04 Aperture macros list*
%AMRoundRect*
0 Rectangle with rounded corners*
0 $1 Rounding radius*
0 $2 $3 $4 $5 $6 $7 $8 $9 X,Y pos of 4 corners*
0 Add a 4 corners polygon primitive as box body*
4,1,4,$2,$3,$4,$5,$6,$7,$8,$9,$2,$3,0*
0 Add four circle primitives for the rounded corners*
1,1,$1+$1,$2,$3*
1,1,$1+$1,$4,$5*
1,1,$1+$1,$6,$7*
1,1,$1+$1,$8,$9*
0 Add four rect primitives between the rounded corners*
20,1,$1+$1,$2,$3,$4,$5,0*
20,1,$1+$1,$4,$5,$6,$7,0*
20,1,$1+$1,$6,$7,$8,$9,0*
20,1,$1+$1,$8,$9,$2,$3,0*%
G04 Aperture macros list end*
%ADD10C,1.000000*%
%ADD11RoundRect,0.250001X0.499999X0.499999X-0.499999X0.499999X-0.499999X-0.499999X0.499999X-0.499999X0*%
%ADD12C,1.500000*%
%ADD13C,2.000000*%
%ADD14R,2.625000X2.625000*%
%ADD15C,2.625000*%
G04 APERTURE END LIST*
D10*
%TO.C,J3*%
X88996000Y-80896000D03*
X97996000Y-80896000D03*
D11*
X94996000Y-84836000D03*
D12*
X91996000Y-84836000D03*
X94996000Y-81836000D03*
X91996000Y-81836000D03*
%TD*%
D10*
%TO.C,J2*%
X115196000Y-80779000D03*
X100196000Y-80779000D03*
D11*
X112196000Y-84719000D03*
D12*
X109196000Y-84719000D03*
X106196000Y-84719000D03*
X103196000Y-84719000D03*
X112196000Y-81719000D03*
X109196000Y-81719000D03*
X106196000Y-81719000D03*
X103196000Y-81719000D03*
%TD*%
D13*
%TO.C,J1*%
X112722000Y-91374000D03*
X114222000Y-73274000D03*
X163122000Y-91374000D03*
X161622000Y-73274000D03*
D14*
X151922000Y-80074000D03*
D15*
X147922000Y-80074000D03*
X143922000Y-80074000D03*
X139922000Y-80074000D03*
X135922000Y-80074000D03*
X131922000Y-80074000D03*
X127922000Y-80074000D03*
X123922000Y-80074000D03*
X149922000Y-84074000D03*
X145922000Y-84074000D03*
X141922000Y-84074000D03*
X137922000Y-84074000D03*
X133922000Y-84074000D03*
X129922000Y-84074000D03*
X125922000Y-84074000D03*
X151922000Y-88074000D03*
X147922000Y-88074000D03*
X143922000Y-88074000D03*
X139922000Y-88074000D03*
X135922000Y-88074000D03*
X131922000Y-88074000D03*
X127922000Y-88074000D03*
X123922000Y-88074000D03*
%TD*%
M02*
