M48
; DRILL file {KiCad (6.0.1)} date Mon Aug 22 15:29:30 2022
; FORMAT={-:-/ absolute / metric / decimal}
; #@! TF.CreationDate,2022-08-22T15:29:30+03:00
; #@! TF.GenerationSoftware,Kicad,Pcbnew,(6.0.1)
; #@! TF.FileFunction,Plated,1,2,PTH
FMAT,2
METRIC
; #@! TA.AperFunction,Plated,PTH,ComponentDrill
T1C1.000
; #@! TA.AperFunction,Plated,PTH,ComponentDrill
T2C1.750
%
G90
G05
T1
X91.996Y-81.836
X91.996Y-84.836
X94.996Y-81.836
X94.996Y-84.836
X103.196Y-81.719
X103.196Y-84.719
X106.196Y-81.719
X106.196Y-84.719
X109.196Y-81.719
X109.196Y-84.719
X112.196Y-81.719
X112.196Y-84.719
T2
X123.922Y-80.074
X123.922Y-88.074
X125.922Y-84.074
X127.922Y-80.074
X127.922Y-88.074
X129.922Y-84.074
X131.922Y-80.074
X131.922Y-88.074
X133.922Y-84.074
X135.922Y-80.074
X135.922Y-88.074
X137.922Y-84.074
X139.922Y-80.074
X139.922Y-88.074
X141.922Y-84.074
X143.922Y-80.074
X143.922Y-88.074
X145.922Y-84.074
X147.922Y-80.074
X147.922Y-88.074
X149.922Y-84.074
X151.922Y-80.074
X151.922Y-88.074
T0
M30
